<svg width="679" height="649" viewBox="0 0 679 649" fill="none" xmlns="http://www.w3.org/2000/svg">
<path d="M504.6 524.3C504.6 524.3 482.4 530.3 490.4 515.4C491.6 513.2 492.9 511.6 494.4 510.3C493.8 510.2 493.2 510.1 492.6 510C492.5 510 492.5 510 492.4 510C492.2 510 492 509.9 491.8 509.9C491.7 509.9 491.7 509.9 491.6 509.9C491.4 509.9 491.2 509.8 491 509.7C488.9 508.9 483.8 506.7 483.6 508.6C483.4 510.5 479.1 508.8 474.5 508.4C470 508 467.3 507.4 467.3 500.4C467.3 493.4 462.4 492.3 460.7 486.2C459 480.1 455.8 474.8 452.2 470.5C448.6 466.1 447.5 469.9 445 471.6C442.5 473.3 436.7 470.6 436.1 463.1C435.5 455.5 426.6 470.7 423 466.9C419.4 463.1 414.9 479.8 413 485.1C411.1 490.4 408.3 472.6 404.3 466.5C400.3 460.4 395.2 467.3 393.5 474.1C391.8 480.9 386.5 486.6 380.8 485.3C375.1 484 372.8 487.2 371.2 481.5C369.6 475.8 373.8 473.9 370.2 468.4C366.6 462.9 371.2 459.3 371.2 459.3C371.2 459.3 363.5 462.2 358.7 463.4C353.9 464.6 348.8 459.5 343.8 458.6C338.7 457.6 334.9 458.4 334.9 463.9C334.9 469.4 329.1 480.5 324.1 480.8C319 481 318.6 491.2 314.7 491.2C310.8 491.2 314.7 498.4 314.7 504.2C314.7 510 309.6 504.2 309.9 508.1C310.1 512 307.5 516.8 304.4 517C301.3 517.2 296 528.3 292.8 525.9C289.7 523.5 280 531 274 529.5C268 528 266.1 534.3 263.2 530.5C260.3 526.6 257.7 535.6 252.8 535.6C247.9 535.6 248.9 541.1 248.7 548.9C248.5 556.6 243.2 560 250.4 559.7C257.6 559.5 260.4 568.7 260.4 575.7C260.4 582.6 252.6 590 251.6 594.5C250.5 599 244.5 603.9 242.9 608.4C242.7 609.1 242.9 610.9 243.4 613.7C244.3 613.4 245.2 613.2 246.1 613C255.4 611.1 253.5 619.9 257.1 623C260.7 626.1 267.8 623.2 271.4 623.2C275 623.2 276.9 627 277.6 623C278.3 618.9 290.2 627.8 295.2 627.8C300.2 627.8 293.6 614.4 298.6 614.4C303.6 614.4 312.6 614.7 316.4 623.8C318 627.7 320.4 627.6 322.6 626.2C325.7 624.2 329.7 624.7 332.1 627.4C333.1 628.5 334.3 629.3 335.3 629.1C338.7 628.5 348.1 629.7 350.6 632.2C353.1 634.7 350.3 639.4 355.3 640.3C360.3 641.2 360 645 366.5 647.2C373 649.4 377.7 643.1 384 643.1C390.2 643.1 394 650.9 398.6 645.1C403.3 639.2 412 644.1 419.8 645C427.5 645.9 418.6 638.1 418 625.4C417.4 612.6 416.9 600.7 421.7 593.3C425.2 587.9 434 585.2 438.3 585.6C442.6 586 443.2 583.6 447.3 577.6C451.4 571.5 459.4 570.4 462.7 567.5C466 564.6 470.1 560.1 471.9 567.3C472.9 571.3 475.1 571.6 477.8 571.2C481.4 565.1 488.5 559.4 488.5 557.1C488.5 554.1 493.1 552 498.1 553.8C498.2 553.8 498.2 553.8 498.3 553.8C498.8 554 499.2 554 499.5 554H499.6C499.7 554 499.8 554 499.9 554C499.9 554 500 554 500 553.9C500.1 553.9 500.2 553.8 500.2 553.8L500.3 553.7L500.4 553.6C500.4 553.6 500.4 553.5 500.5 553.5C500.5 553.4 500.6 553.3 500.6 553.3C500.6 553.2 500.6 553.2 500.6 553.1C500.6 553 500.6 552.9 500.7 552.9C500.7 552.9 500.7 552.8 500.7 552.7C500.7 552.6 500.7 552.5 500.7 552.3C500.7 552 500.7 551.7 500.7 551.3C500.7 550.8 500.6 550.2 500.5 549.6C500.5 549.3 500.4 549 500.4 548.7C500.4 548.5 500.4 548.4 500.3 548.2C500.2 547.4 500 546.4 499.9 545.5C499.8 545 499.8 544.4 499.7 543.8C499.7 543.7 499.7 543.6 499.7 543.4C499.7 542.8 499.6 542.2 499.6 541.6C499.6 541.1 499.6 540.7 499.6 540.4C499.6 540.4 499.6 540.4 499.6 540.3C499.6 539.9 499.7 539.6 499.7 539.3V539.2C499.7 538.9 499.8 538.7 499.9 538.5V538.4C500 538.2 500 538 500.1 537.9V537.8C500.2 537.7 500.3 537.5 500.3 537.4C500.3 537.4 500.3 537.3 500.4 537.3C500.5 537.2 500.6 537.1 500.7 537.1L500.8 537C500.9 536.9 501 536.9 501.1 536.8C501.1 536.8 501.2 536.8 501.3 536.7C501.4 536.7 501.5 536.6 501.6 536.6C501.7 536.6 501.8 536.6 501.8 536.5C503 536.2 504.6 536.3 506.2 534.7C509.6 531.1 508.9 528.8 504.6 524.3Z" fill="white"/>
<path d="M504.6 524.3C504.6 524.3 482.4 530.3 490.4 515.4C491.6 513.2 492.9 511.6 494.4 510.3C493.8 510.2 493.2 510.1 492.6 510C492.5 510 492.5 510 492.4 510C492.2 510 492 509.9 491.8 509.9C491.7 509.9 491.7 509.9 491.6 509.9C491.4 509.9 491.2 509.8 491 509.7C488.9 508.9 483.8 506.7 483.6 508.6C483.4 510.5 479.1 508.8 474.5 508.4C470 508 467.3 507.4 467.3 500.4C467.3 493.4 462.4 492.3 460.7 486.2C459 480.1 455.8 474.8 452.2 470.5C448.6 466.1 447.5 469.9 445 471.6C442.5 473.3 436.7 470.6 436.1 463.1C435.5 455.5 426.6 470.7 423 466.9C419.4 463.1 414.9 479.8 413 485.1C411.1 490.4 408.3 472.6 404.3 466.5C400.3 460.4 395.2 467.3 393.5 474.1C391.8 480.9 386.5 486.6 380.8 485.3C375.1 484 372.8 487.2 371.2 481.5C369.6 475.8 373.8 473.9 370.2 468.4C366.6 462.9 371.2 459.3 371.2 459.3C371.2 459.3 363.5 462.2 358.7 463.4C353.9 464.6 348.8 459.5 343.8 458.6C338.7 457.6 334.9 458.4 334.9 463.9C334.9 469.4 329.1 480.5 324.1 480.8C319 481 318.6 491.2 314.7 491.2C310.8 491.2 314.7 498.4 314.7 504.2C314.7 510 309.6 504.2 309.9 508.1C310.1 512 307.5 516.8 304.4 517C301.3 517.2 296 528.3 292.8 525.9C289.7 523.5 280 531 274 529.5C268 528 266.1 534.3 263.2 530.5C260.3 526.6 257.7 535.6 252.8 535.6C247.9 535.6 248.9 541.1 248.7 548.9C248.5 556.6 243.2 560 250.4 559.7C257.6 559.5 260.4 568.7 260.4 575.7C260.4 582.6 252.6 590 251.6 594.5C250.5 599 244.5 603.9 242.9 608.4C242.7 609.1 242.9 610.9 243.4 613.7C244.3 613.4 245.2 613.2 246.1 613C255.4 611.1 253.5 619.9 257.1 623C260.7 626.1 267.8 623.2 271.4 623.2C275 623.2 276.9 627 277.6 623C278.3 618.9 290.2 627.8 295.2 627.8C300.2 627.8 293.6 614.4 298.6 614.4C303.6 614.4 312.6 614.7 316.4 623.8C318 627.7 320.4 627.6 322.6 626.2C325.7 624.2 329.7 624.7 332.1 627.4C333.1 628.5 334.3 629.3 335.3 629.1C338.7 628.5 348.1 629.7 350.6 632.2C353.1 634.7 350.3 639.4 355.3 640.3C360.3 641.2 360 645 366.5 647.2C373 649.4 377.7 643.1 384 643.1C390.2 643.1 394 650.9 398.6 645.1C403.3 639.2 412 644.1 419.8 645C427.5 645.9 418.6 638.1 418 625.4C417.4 612.6 416.9 600.7 421.7 593.3C425.2 587.9 434 585.2 438.3 585.6C442.6 586 443.2 583.6 447.3 577.6C451.4 571.5 459.4 570.4 462.7 567.5C466 564.6 470.1 560.1 471.9 567.3C472.9 571.3 475.1 571.6 477.8 571.2C481.4 565.1 488.5 559.4 488.5 557.1C488.5 554.1 493.1 552 498.1 553.8C498.2 553.8 498.2 553.8 498.3 553.8C498.8 554 499.2 554 499.5 554H499.6C499.7 554 499.8 554 499.9 554C499.9 554 500 554 500 553.9C500.1 553.9 500.2 553.8 500.2 553.8L500.3 553.7L500.4 553.6C500.4 553.6 500.4 553.5 500.5 553.5C500.5 553.4 500.6 553.3 500.6 553.3C500.6 553.2 500.6 553.2 500.6 553.1C500.6 553 500.6 552.9 500.7 552.9C500.7 552.9 500.7 552.8 500.7 552.7C500.7 552.6 500.7 552.5 500.7 552.3C500.7 552 500.7 551.7 500.7 551.3C500.7 550.8 500.6 550.2 500.5 549.6C500.5 549.3 500.4 549 500.4 548.7C500.4 548.5 500.4 548.4 500.3 548.2C500.2 547.4 500 546.4 499.9 545.5C499.8 545 499.8 544.4 499.7 543.8C499.7 543.7 499.7 543.6 499.7 543.4C499.7 542.8 499.6 542.2 499.6 541.6C499.6 541.1 499.6 540.7 499.6 540.4C499.6 540.4 499.6 540.4 499.6 540.3C499.6 539.9 499.7 539.6 499.7 539.3V539.2C499.7 538.9 499.8 538.7 499.9 538.5V538.4C500 538.2 500 538 500.1 537.9V537.8C500.2 537.7 500.3 537.5 500.3 537.4C500.3 537.4 500.3 537.3 500.4 537.3C500.5 537.2 500.6 537.1 500.7 537.1L500.8 537C500.9 536.9 501 536.9 501.1 536.8C501.1 536.8 501.2 536.8 501.3 536.7C501.4 536.7 501.5 536.6 501.6 536.6C501.7 536.6 501.8 536.6 501.8 536.5C503 536.2 504.6 536.3 506.2 534.7C509.6 531.1 508.9 528.8 504.6 524.3Z" stroke="#005645" stroke-width="2.1432"/>
<path d="M556.2 363.6C549.7 360 546.2 361.3 542.6 365.2C539 369.1 538.1 364.2 536.5 354.2C534.9 344.2 529.4 349 523.2 348.7C517.1 348.4 514.5 345.8 510.9 358.4C507.3 371 500.6 368.4 499.6 364.5C498.6 360.6 487 358.7 487 365.5C487 372.3 476.3 371.3 470.8 371.3C465.3 371.3 464.7 364.5 469.9 357.7C475.1 350.9 456.6 347.4 456 339C455.4 330.6 446.3 337.4 442.1 332.2C437.9 327 434.3 338 431.8 333.2C429.2 328.4 421.1 334.8 416.9 329.6C412.7 324.4 406.2 334.4 398.8 334.4C391.4 334.4 397.8 344.7 393 344.7C388.2 344.7 379 349.8 377.6 353.5C376.2 357.2 383.6 359.8 388.7 368.7C393.7 377.6 395.2 374.2 395.2 386C395.2 397.8 384.9 395.5 384.9 401.2C384.9 406.9 390.4 409 391.8 416.4C393.2 423.9 387.2 428.2 384.9 427.6C382.6 427 384 435.4 381.4 435.6C378.8 435.9 378.8 450 375.6 450.3C372.4 450.6 371.1 452.9 371.4 458.9C371.4 458.9 366.7 462.5 370.4 468C374 473.5 369.8 475.4 371.4 481.1C373 486.8 375.3 483.6 381 484.9C386.7 486.2 392 480.5 393.7 473.7C395.4 466.9 400.5 460.1 404.5 466.1C408.5 472.2 411.3 490 413.2 484.7C415.1 479.4 419.6 462.7 423.2 466.5C426.8 470.3 435.7 455.1 436.3 462.7C436.9 470.3 442.7 472.9 445.2 471.2C447.7 469.5 448.8 465.7 452.4 470.1C456 474.5 459.2 479.8 460.9 485.8C462.6 491.9 467.5 493 467.5 500C467.5 507 470.2 507.6 474.7 508C479.2 508.4 483.6 510.1 483.8 508.2C484 506.3 489.1 508.6 491.2 509.3C491.9 509.5 493.1 509.8 494.5 509.9C503.2 502.5 516.2 509 521.1 509.7C526.9 510.5 528.3 513.8 531.6 513.8C534.9 513.8 534.9 513.8 536.6 515.5C538.3 517.2 545.2 524.1 545.7 519.6C546.2 515.2 550.9 513.8 550.7 510C550.4 506.1 544.4 506.4 540.8 504.2C537.2 502 538.6 496.2 543.6 495.9C548.6 495.6 548.3 490.7 548.3 485.1C548.3 479.6 557.4 482.6 557.7 475.2C558 467.8 567.9 474.4 569 467.5C570.1 460.6 573.7 467.5 581.1 467.5C588.5 467.5 590.5 464.7 586.9 461.4C583.3 458.1 578.1 454.5 579.7 449.8C581.4 445.1 589.9 454.2 592.4 450.6C594.9 447 597.6 448.4 602.2 449.5C602.2 446.8 605.7 447 610.3 448.7C614.9 450.4 620.8 440.6 624.6 438.5C628.4 436.4 627.2 433.6 628.5 429.7C629.8 425.8 632.2 425.4 625.3 423C618.5 420.6 619.8 416.6 619.1 409.8C618.4 403 609.4 404.6 609.4 399.6C609.4 394.6 613.6 395.4 619.8 392.9C626 390.4 617.4 379.1 614.7 381.4C612 383.6 613.7 374.7 609.5 374.1C605.3 373.4 612.7 366.5 611.2 364.7C609.8 362.9 609.2 358.7 609.1 354.3C609 350 592.1 355.1 589.3 358.9C586.6 362.7 584.1 356.7 581.2 359.4C578.3 362.1 580.8 365 581.9 368.7C582.9 372.4 573.9 373.7 569.7 373.8C565.5 373.9 565 367.6 572.3 366.6C579.6 365.6 573.6 362.7 575.2 359.4C576.5 356.6 574.1 355.5 572.5 354C566.5 360 559.6 365.5 556.2 363.6Z" fill="white"/>
<path d="M556.2 363.6C549.7 360 546.2 361.3 542.6 365.2C539 369.1 538.1 364.2 536.5 354.2C534.9 344.2 529.4 349 523.2 348.7C517.1 348.4 514.5 345.8 510.9 358.4C507.3 371 500.6 368.4 499.6 364.5C498.6 360.6 487 358.7 487 365.5C487 372.3 476.3 371.3 470.8 371.3C465.3 371.3 464.7 364.5 469.9 357.7C475.1 350.9 456.6 347.4 456 339C455.4 330.6 446.3 337.4 442.1 332.2C437.9 327 434.3 338 431.8 333.2C429.2 328.4 421.1 334.8 416.9 329.6C412.7 324.4 406.2 334.4 398.8 334.4C391.4 334.4 397.8 344.7 393 344.7C388.2 344.7 379 349.8 377.6 353.5C376.2 357.2 383.6 359.8 388.7 368.7C393.7 377.6 395.2 374.2 395.2 386C395.2 397.8 384.9 395.5 384.9 401.2C384.9 406.9 390.4 409 391.8 416.4C393.2 423.9 387.2 428.2 384.9 427.6C382.6 427 384 435.4 381.4 435.6C378.8 435.9 378.8 450 375.6 450.3C372.4 450.6 371.1 452.9 371.4 458.9C371.4 458.9 366.7 462.5 370.4 468C374 473.5 369.8 475.4 371.4 481.1C373 486.8 375.3 483.6 381 484.9C386.7 486.2 392 480.5 393.7 473.7C395.4 466.9 400.5 460.1 404.5 466.1C408.5 472.2 411.3 490 413.2 484.7C415.1 479.4 419.6 462.7 423.2 466.5C426.8 470.3 435.7 455.1 436.3 462.7C436.9 470.3 442.7 472.9 445.2 471.2C447.7 469.5 448.8 465.7 452.4 470.1C456 474.5 459.2 479.8 460.9 485.8C462.6 491.9 467.5 493 467.5 500C467.5 507 470.2 507.6 474.7 508C479.2 508.4 483.6 510.1 483.8 508.2C484 506.3 489.1 508.6 491.2 509.3C491.9 509.5 493.1 509.8 494.5 509.9C503.2 502.5 516.2 509 521.1 509.7C526.9 510.5 528.3 513.8 531.6 513.8C534.9 513.8 534.9 513.8 536.6 515.5C538.3 517.2 545.2 524.1 545.7 519.6C546.2 515.2 550.9 513.8 550.7 510C550.4 506.1 544.4 506.4 540.8 504.2C537.2 502 538.6 496.2 543.6 495.9C548.6 495.6 548.3 490.7 548.3 485.1C548.3 479.6 557.4 482.6 557.7 475.2C558 467.8 567.9 474.4 569 467.5C570.1 460.6 573.7 467.5 581.1 467.5C588.5 467.5 590.5 464.7 586.9 461.4C583.3 458.1 578.1 454.5 579.7 449.8C581.4 445.1 589.9 454.2 592.4 450.6C594.9 447 597.6 448.4 602.2 449.5C602.2 446.8 605.7 447 610.3 448.7C614.9 450.4 620.8 440.6 624.6 438.5C628.4 436.4 627.2 433.6 628.5 429.7C629.8 425.8 632.2 425.4 625.3 423C618.5 420.6 619.8 416.6 619.1 409.8C618.4 403 609.4 404.6 609.4 399.6C609.4 394.6 613.6 395.4 619.8 392.9C626 390.4 617.4 379.1 614.7 381.4C612 383.6 613.7 374.7 609.5 374.1C605.3 373.4 612.7 366.5 611.2 364.7C609.8 362.9 609.2 358.7 609.1 354.3C609 350 592.1 355.1 589.3 358.9C586.6 362.7 584.1 356.7 581.2 359.4C578.3 362.1 580.8 365 581.9 368.7C582.9 372.4 573.9 373.7 569.7 373.8C565.5 373.9 565 367.6 572.3 366.6C579.6 365.6 573.6 362.7 575.2 359.4C576.5 356.6 574.1 355.5 572.5 354C566.5 360 559.6 365.5 556.2 363.6Z" stroke="#005645" stroke-width="2.1432"/>
<path d="M657.4 517.2C657.4 511.3 649.4 515.8 641.4 515.8C633.4 515.8 625.8 513 621.3 511.4C616.8 509.8 617.8 501.1 618 498.3C618.3 494.8 612.8 492.3 615 489.8C617.2 487.3 616.2 479 620.8 481.9C625.4 484.8 624 468.8 619.1 468.8C614.2 468.8 609.3 467.4 609.3 461.2C609.3 455 602.1 452.8 602.1 450.1C597.5 449 594.8 447.6 592.3 451.2C589.8 454.8 581.3 445.7 579.6 450.4C577.9 455.1 583.2 458.7 586.8 462C590.4 465.3 588.5 468.1 581 468.1C573.6 468.1 570 461.2 568.9 468.1C567.8 475 557.9 468.4 557.6 475.8C557.3 483.2 548.2 480.2 548.2 485.7C548.2 491.2 548.5 496.2 543.5 496.5C538.5 496.8 537.2 502.6 540.7 504.8C544.3 507 550.3 506.7 550.6 510.6C550.9 514.5 546.2 515.8 545.6 520.2C545.1 524.6 538.2 517.7 536.5 516.1C534.8 514.4 534.8 514.4 531.5 514.4C528.2 514.4 526.8 511.1 521 510.3C516.1 509.6 503.1 503.1 494.4 510.5C492.9 511.8 491.6 513.4 490.4 515.6C482.4 530.5 504.6 524.5 504.6 524.5C508.9 529.1 509.7 531.3 506.4 534.6C504.8 536.2 503.2 536.1 502 536.4C500.7 536.7 499.8 537.5 499.8 541.5C499.8 542.8 499.9 544.1 500 545.4C500.6 551 502.1 555 498.2 553.8C498.1 553.8 498.1 553.8 498 553.8C492.9 552 488.4 554 488.4 557.1C488.4 559.4 481.3 565.1 477.7 571.2C479.8 570.8 482.2 569.9 484.5 569.9C489.6 569.9 494.1 568.9 493.7 574.6C493.3 580.3 497 579.5 507 579.5C517 579.5 512.5 576.6 516.2 573.4C519.9 570.3 523.2 580.2 529.7 579.3C536.1 578.3 536.3 579.1 536.3 585C536.3 590.9 549 588.3 554.1 589.9C559.2 591.5 572.3 595.4 583.4 593.4C594.5 591.4 593.5 592 603.7 587.2C613.8 582.3 606 574.3 613.5 574.3C620.9 574.3 618.4 564.3 624.8 564.3C631.2 564.3 629.5 556.3 635.1 552.8C640.8 549.3 648 547.7 648 542.7C648 537.6 650.9 534.9 654.6 529C658.1 522.6 657.4 523 657.4 517.2Z" fill="white"/>
<path d="M657.4 517.2C657.4 511.3 649.4 515.8 641.4 515.8C633.4 515.8 625.8 513 621.3 511.4C616.8 509.8 617.8 501.1 618 498.3C618.3 494.8 612.8 492.3 615 489.8C617.2 487.3 616.2 479 620.8 481.9C625.4 484.8 624 468.8 619.1 468.8C614.2 468.8 609.3 467.4 609.3 461.2C609.3 455 602.1 452.8 602.1 450.1C597.5 449 594.8 447.6 592.3 451.2C589.8 454.8 581.3 445.7 579.6 450.4C577.9 455.1 583.2 458.7 586.8 462C590.4 465.3 588.5 468.1 581 468.1C573.6 468.1 570 461.2 568.9 468.1C567.8 475 557.9 468.4 557.6 475.8C557.3 483.2 548.2 480.2 548.2 485.7C548.2 491.2 548.5 496.2 543.5 496.5C538.5 496.8 537.2 502.6 540.7 504.8C544.3 507 550.3 506.7 550.6 510.6C550.9 514.5 546.2 515.8 545.6 520.2C545.1 524.6 538.2 517.7 536.5 516.1C534.8 514.4 534.8 514.4 531.5 514.4C528.2 514.4 526.8 511.1 521 510.3C516.1 509.6 503.1 503.1 494.4 510.5C492.9 511.8 491.6 513.4 490.4 515.6C482.4 530.5 504.6 524.5 504.6 524.5C508.9 529.1 509.7 531.3 506.4 534.6C504.8 536.2 503.2 536.1 502 536.4C500.7 536.7 499.8 537.5 499.8 541.5C499.8 542.8 499.9 544.1 500 545.4C500.6 551 502.1 555 498.2 553.8C498.1 553.8 498.1 553.8 498 553.8C492.9 552 488.4 554 488.4 557.1C488.4 559.4 481.3 565.1 477.7 571.2C479.8 570.8 482.2 569.9 484.5 569.9C489.6 569.9 494.1 568.9 493.7 574.6C493.3 580.3 497 579.5 507 579.5C517 579.5 512.5 576.6 516.2 573.4C519.9 570.3 523.2 580.2 529.7 579.3C536.1 578.3 536.3 579.1 536.3 585C536.3 590.9 549 588.3 554.1 589.9C559.2 591.5 572.3 595.4 583.4 593.4C594.5 591.4 593.5 592 603.7 587.2C613.8 582.3 606 574.3 613.5 574.3C620.9 574.3 618.4 564.3 624.8 564.3C631.2 564.3 629.5 556.3 635.1 552.8C640.8 549.3 648 547.7 648 542.7C648 537.6 650.9 534.9 654.6 529C658.1 522.6 657.4 523 657.4 517.2Z" stroke="#005645" stroke-width="2.1432"/>
<path d="M365 354.7C352.4 355.7 350 360 344 356.2C338 352.3 323 361.8 322.2 356.7C321.5 351.6 320.7 347.3 313.3 347.3C305.8 347.3 310.4 337.2 308.2 335.2C306 333.3 300.9 321.4 298.1 316.3C295.2 311.2 292.3 317.3 289.2 317.8C286.1 318.3 280 320.7 280 314.9C280 309.1 275.4 303.5 271.5 302.6C267.6 301.6 265.5 297.8 261.8 302.6C258.2 307.4 247.8 306.5 240.3 305C232.8 303.5 227.5 311.5 219.3 312.5C211.1 313.5 228.2 329.4 228.5 342.7C228.7 356 231.2 354.5 234.1 357.7C237 360.9 229.5 363 222 360.6C214.5 358.2 216.4 361.8 214 358.4C212.2 355.8 207.8 361.1 202.9 364.3C208.3 365.4 203.6 370.2 198.9 371.3C193.9 372.5 182.4 363.7 185.3 369.6C188.2 375.6 196.5 374.6 202.5 374.6C208.5 374.6 209.6 377 209.6 384.4C209.6 391.8 205.8 394.9 202.9 388.9C200 382.9 192.9 386.8 193.1 388.9C193.3 391 199.5 398.7 199.5 402.5C199.5 406.3 201.6 408.2 206.2 410.4C210.7 412.5 212.2 414.9 207.9 418.3C203.6 421.6 202.4 422.6 202.4 444C202.4 465.4 199.3 470.2 201.9 473.1C204.1 475.5 206.7 479.3 205.8 481C205.6 481.3 205.3 481.6 204.8 481.7C201.7 482.4 197.9 490 196.5 511C195.1 532 183.9 565.6 176.7 567.7C169.6 569.8 173.6 576.5 175.3 577.2C177 577.9 175.8 584.1 180.1 581.3C184.4 578.4 187.5 583.9 186.1 589.6C184.7 595.3 188 601.3 192.1 596.7C196.2 592.2 194 598.6 203.3 602.4C212.6 606.2 223.3 607.6 226.2 614.3C228.8 620.3 235.4 615.7 243.5 613.3C243 610.6 242.8 608.7 243 608C244.6 603.5 250.7 598.6 251.7 594.1C252.8 589.6 260.5 582.3 260.5 575.3C260.5 568.4 257.7 559.1 250.5 559.3C243.3 559.5 248.6 556.2 248.8 548.5C249 540.8 248.1 535.2 252.9 535.2C257.7 535.2 260.4 526.3 263.3 530.1C266.2 534 268.1 527.7 274.1 529.1C280.1 530.6 289.8 523.1 292.9 525.5C296 527.9 301.3 516.8 304.5 516.6C307.6 516.4 310.3 511.5 310 507.7C309.8 503.8 314.8 509.6 314.8 503.8C314.8 498 310.9 490.8 314.8 490.8C318.7 490.8 319.1 480.7 324.2 480.4C329.3 480.2 335 469.1 335 463.5C335 458 338.9 457.2 343.9 458.2C349 459.2 354 464.2 358.8 463C363.6 461.8 371.3 458.9 371.3 458.9C371 452.9 372.3 450.5 375.5 450.3C378.7 450 378.7 435.9 381.3 435.6C383.9 435.3 382.5 427 384.8 427.6C387.1 428.2 393.1 423.9 391.7 416.4C390.3 408.9 384.8 406.9 384.8 401.2C384.8 395.5 395.1 397.7 395.1 386C395.1 374.2 393.6 377.7 388.6 368.7C384.1 360.7 377.7 357.8 377.4 354.6C374.5 354.5 370.4 354.3 365 354.7Z" fill="white"/>
<path d="M365 354.7C352.4 355.7 350 360 344 356.2C338 352.3 323 361.8 322.2 356.7C321.5 351.6 320.7 347.3 313.3 347.3C305.8 347.3 310.4 337.2 308.2 335.2C306 333.3 300.9 321.4 298.1 316.3C295.2 311.2 292.3 317.3 289.2 317.8C286.1 318.3 280 320.7 280 314.9C280 309.1 275.4 303.5 271.5 302.6C267.6 301.6 265.5 297.8 261.8 302.6C258.2 307.4 247.8 306.5 240.3 305C232.8 303.5 227.5 311.5 219.3 312.5C211.1 313.5 228.2 329.4 228.5 342.7C228.7 356 231.2 354.5 234.1 357.7C237 360.9 229.5 363 222 360.6C214.5 358.2 216.4 361.8 214 358.4C212.2 355.8 207.8 361.1 202.9 364.3C208.3 365.4 203.6 370.2 198.9 371.3C193.9 372.5 182.4 363.7 185.3 369.6C188.2 375.6 196.5 374.6 202.5 374.6C208.5 374.6 209.6 377 209.6 384.4C209.6 391.8 205.8 394.9 202.9 388.9C200 382.9 192.9 386.8 193.1 388.9C193.3 391 199.5 398.7 199.5 402.5C199.5 406.3 201.6 408.2 206.2 410.4C210.7 412.5 212.2 414.9 207.9 418.3C203.6 421.6 202.4 422.6 202.4 444C202.4 465.4 199.3 470.2 201.9 473.1C204.1 475.5 206.7 479.3 205.8 481C205.6 481.3 205.3 481.6 204.8 481.7C201.7 482.4 197.9 490 196.5 511C195.1 532 183.9 565.6 176.7 567.7C169.6 569.8 173.6 576.5 175.3 577.2C177 577.9 175.8 584.1 180.1 581.3C184.4 578.4 187.5 583.9 186.1 589.6C184.7 595.3 188 601.3 192.1 596.7C196.2 592.2 194 598.6 203.3 602.4C212.6 606.2 223.3 607.6 226.2 614.3C228.8 620.3 235.4 615.7 243.5 613.3C243 610.6 242.8 608.7 243 608C244.6 603.5 250.7 598.6 251.7 594.1C252.8 589.6 260.5 582.3 260.5 575.3C260.5 568.4 257.7 559.1 250.5 559.3C243.3 559.5 248.6 556.2 248.8 548.5C249 540.8 248.1 535.2 252.9 535.2C257.7 535.2 260.4 526.3 263.3 530.1C266.2 534 268.1 527.7 274.1 529.1C280.1 530.6 289.8 523.1 292.9 525.5C296 527.9 301.3 516.8 304.5 516.6C307.6 516.4 310.3 511.5 310 507.7C309.8 503.8 314.8 509.6 314.8 503.8C314.8 498 310.9 490.8 314.8 490.8C318.7 490.8 319.1 480.7 324.2 480.4C329.3 480.2 335 469.1 335 463.5C335 458 338.9 457.2 343.9 458.2C349 459.2 354 464.2 358.8 463C363.6 461.8 371.3 458.9 371.3 458.9C371 452.9 372.3 450.5 375.5 450.3C378.7 450 378.7 435.9 381.3 435.6C383.9 435.3 382.5 427 384.8 427.6C387.1 428.2 393.1 423.9 391.7 416.4C390.3 408.9 384.8 406.9 384.8 401.2C384.8 395.5 395.1 397.7 395.1 386C395.1 374.2 393.6 377.7 388.6 368.7C384.1 360.7 377.7 357.8 377.4 354.6C374.5 354.5 370.4 354.3 365 354.7Z" stroke="#005645" stroke-width="2.1432"/>
<mask id="mask0_126_221" style="mask-type:luminance" maskUnits="userSpaceOnUse" x="0" y="437" width="126" height="157">
<path d="M125.7 437H0.799805V593.9H125.7V437Z" fill="white"/>
</mask>
<g mask="url(#mask0_126_221)">
<path d="M15.7997 519.2C14.6997 518 13.5997 516.8 12.3997 515.7C10.4997 513.9 9.29971 511.8 9.29971 509.1C9.29971 507.6 8.79971 506.2 7.89971 505.1C6.89971 503.9 6.19971 502.5 5.79971 501C5.39971 499.5 5.29971 498 5.49971 496.4C5.79971 493.2 5.69971 489.9 5.79971 486.7C5.79971 485 6.19971 483.4 6.79971 481.8C7.39971 480.4 7.59971 478.9 7.49971 477.3C7.39971 474.9 7.29971 472.5 7.39971 470.2C7.39971 469.1 7.59971 468 7.99971 466.9C8.49971 465.9 9.09971 464.9 9.99971 464.2C11.1997 463.1 11.8997 461.6 12.5997 460.1C14.0997 457.3 15.8997 455 18.6997 453.4C19.5997 452.9 20.2997 452.2 20.7997 451.3C22.5997 448.2 24.0997 444.9 25.0997 441.5C25.3997 440.5 25.3997 439.5 25.2997 438.6C25.0997 437.6 25.2997 437.3 26.3997 437.2C28.9997 437 31.6997 436.5 34.2997 437.1C35.6997 437.4 36.9997 437.8 38.0997 438.8C43.1997 443.8 49.5997 446.4 56.2997 448.2C59.8997 449.2 63.5997 450.3 67.2997 450.9C67.9997 451 68.6997 451.2 69.2997 451.6C72.8997 454.3 76.9997 456.1 80.0997 459.7C82.6997 462.7 85.7997 465.4 89.7997 466.8C90.3997 467 90.8997 467.3 91.1997 467.8C92.9997 470.9 95.3997 473.7 95.1997 477.6C95.1997 478.2 95.0997 479.1 95.9997 479.2C96.7997 479.3 97.2997 478.7 97.5997 478C98.5997 476.1 99.0997 475.8 101 477.1C104.2 479.1 107 481.6 109.3 484.5C111.6 487.5 112.9 491.1 110.8 494.9C110.6 495.3 110.4 495.7 110.5 496.2C113.4 496.1 114.4 494.8 113.6 492.1C113.1 490.3 113.1 488.4 113.6 486.7C113.7 486.3 113.9 486 114.2 485.8C114.5 485.6 114.9 485.5 115.3 485.5C116.2 485.5 117.1 485.8 117.8 486.3C118.5 486.8 119 487.6 119.2 488.5C120.1 491.5 120.9 494.6 121.7 497.6C122 499 122.8 500.4 123.9 501.4C125.8 503.1 126.2 505.1 125.2 507.3C123.7 510.7 122.1 514.1 119.2 516.6C117.4 518.2 116.1 520.3 115.6 522.6C115.2 524.5 114.2 525.8 112.2 526.4C110.7 526.8 110 528.1 109.4 529.4C108.5 531.4 107.7 533.4 107 535.4C105.6 539.4 103.4 542.8 99.5997 545C98.1997 545.9 96.9997 547 95.9997 548.4C95.1997 549.3 94.7997 550.5 94.7997 551.6C94.8997 553 94.3997 554.3 93.5997 555.4C92.4997 556.8 91.7997 558.5 91.5997 560.3C91.4997 561.3 91.2997 562.2 90.7997 563C90.2997 563.8 89.5997 564.5 88.7997 565C86.0997 566.7 85.0997 569.2 85.0997 572.2C85.0997 572.5 85.0997 572.7 85.0997 573C85.3997 575.8 84.5997 577.9 82.1997 579.9C79.0997 582.5 76.6997 585.9 73.5997 588.6C72.1997 589.8 70.7997 591.1 69.0997 592C68.4997 592.3 67.8997 592.6 67.2997 591.9C66.7997 591.4 66.0997 591.4 65.3997 591.4C63.1997 591.4 60.8997 591.8 58.7997 592.4C57.0997 592.9 56.8997 592.7 56.5997 591C56.4997 590.6 56.3997 590.1 56.2997 589.7C55.3997 585.8 52.3997 584.3 48.6997 586C47.6997 586.5 46.7997 587.2 45.8997 587.9C42.4997 590.7 39.6997 590.4 36.8997 586.9C36.6997 586.6 36.4997 586.3 36.2997 586C35.2997 584.5 34.9997 584.4 33.3997 585.2C29.6997 587.2 26.0997 589.5 22.7997 592.1C20.5997 593.9 18.3997 594.3 15.7997 593.2C14.1997 592.5 12.4997 592.1 10.7997 592.1C9.79971 592 8.89971 591.7 8.19971 591.1C7.59971 590.7 6.99971 590.4 6.29971 590.2C5.59971 590 4.89971 590 4.19971 590.2C3.09971 590.4 1.79971 590.7 1.09971 589.5C0.799707 588.9 0.699707 588.3 0.699707 587.7C0.699707 587.1 0.899705 586.5 1.29971 585.9C2.79971 583.3 4.59971 580.9 6.69971 578.7C9.59971 575.7 11.4997 572.1 12.5997 568.1C13.6997 564.4 15.0997 560.7 15.6997 556.8C15.9997 554.9 16.9997 553.1 17.8997 551.3C19.6997 547.8 21.0997 544.1 23.3997 540.9C25.1997 538.4 25.6997 535.3 26.0997 532.3C26.2997 531.1 25.9997 529.9 25.3997 528.9C24.9997 528.2 24.4997 528 23.8997 528.7C23.2997 529.3 22.9997 529.9 22.4997 530.5C22.2997 530.7 22.2997 531 21.9997 531C21.6997 531 21.4997 530.6 21.4997 530.3C21.1997 529.2 20.9997 528 20.6997 526.9C20.5997 526.6 20.5997 526.3 20.5997 526.1C20.5997 525.8 20.7997 525.5 20.9997 525.3C21.9997 523.8 21.4997 522.8 20.8997 521.3C20.1997 519.8 18.5997 519.4 17.8997 518C17.6997 517.5 17.2997 517.9 17.0997 518.2C16.9997 519 16.5997 519.5 15.7997 519.2Z" fill="white" stroke="#005645" stroke-width="2.1432"/>
</g>
<path d="M148.3 274.1C151 269 157.6 276.2 157.6 268C157.6 259.8 170.1 262.9 174.9 258.7C179.7 254.4 191.1 246.5 197.3 248.6C203.4 250.7 207.9 244.9 208.7 239C209.5 233.1 211.9 229.4 210 219C208.1 208.6 207.6 193.7 201.2 197.4C195.1 200.9 187.7 211.9 184.9 188.9H184.8C179.3 189.4 171.2 191.5 171 185.5C170.9 179.5 165.2 183.9 158.7 188.9C152.1 193.9 151.8 189.4 149.6 185.5C147.5 181.6 146.4 185.5 140.6 188.1C134.7 190.7 137.6 195 132.3 194.9C130 194.8 123.9 193.7 123.9 190.4C123.9 187.1 122.9 186.5 120 183.8C117.1 181.2 114.4 178.3 113.3 174C112.3 169.7 110.4 165.2 106.2 168.2C105.1 169 100.8 169 97.9 172.5C95 176 93.4 172.6 89.1 172.5C84.8 172.4 85.9 179.2 86.1 181.9C86.2 184.6 82.3 186.1 77.5 182.2C72.6 178.3 72.5 181.5 71.5 186.9C70.5 192.3 67.2 183.6 64.9 179.4C62.7 175.2 56.3 182.6 52.1 181.5C47.9 180.5 47.9 182.9 41.9 182.9C35.9 182.9 37.4 186.6 31.4 187.8C25.4 189 22.5 189.9 22.1 196.4C21.7 203 23.6 209.4 27.1 207.2C30.6 205 37.8 205.5 43 205.2C48.2 204.9 51.5 211.6 49.2 214.1C46.8 216.6 41.6 210 36.5 208.5C31.4 206.9 34 212.8 34.1 217.8C34.2 222.8 35.7 222.3 39.2 219.9C44.3 216.3 49.5 219.2 50.1 220.4C51.5 223.3 50.2 226.3 45 226.3C39.8 226.3 32.4 228 28.1 230.9C23.8 233.8 35.3 235.8 40.2 238C45.1 240.2 43.6 244.9 41.5 250.5C39.4 256 45.7 252.1 52.1 252.1C58.5 252.1 54.1 245.9 60.2 247C66.4 248 66.5 244.3 70.4 250.5C74.3 256.7 81.4 250.4 85.9 256C90.4 261.6 94.8 253.4 101 265.2C107.2 277 108.6 268.6 114.4 267.9C120.2 267.2 119.8 267 120 271.1C120.3 275.2 126.7 270.7 132.1 269.5C137.6 268.3 140 274.5 139 278.1C139 278.2 138.9 278.3 138.9 278.4C143.6 278.1 146.7 277.2 148.3 274.1Z" fill="white"/>
<path d="M148.3 274.1C151 269 157.6 276.2 157.6 268C157.6 259.8 170.1 262.9 174.9 258.7C179.7 254.4 191.1 246.5 197.3 248.6C203.4 250.7 207.9 244.9 208.7 239C209.5 233.1 211.9 229.4 210 219C208.1 208.6 207.6 193.7 201.2 197.4C195.1 200.9 187.7 211.9 184.9 188.9H184.8C179.3 189.4 171.2 191.5 171 185.5C170.9 179.5 165.2 183.9 158.7 188.9C152.1 193.9 151.8 189.4 149.6 185.5C147.5 181.6 146.4 185.5 140.6 188.1C134.7 190.7 137.6 195 132.3 194.9C130 194.8 123.9 193.7 123.9 190.4C123.9 187.1 122.9 186.5 120 183.8C117.1 181.2 114.4 178.3 113.3 174C112.3 169.7 110.4 165.2 106.2 168.2C105.1 169 100.8 169 97.9 172.5C95 176 93.4 172.6 89.1 172.5C84.8 172.4 85.9 179.2 86.1 181.9C86.2 184.6 82.3 186.1 77.5 182.2C72.6 178.3 72.5 181.5 71.5 186.9C70.5 192.3 67.2 183.6 64.9 179.4C62.7 175.2 56.3 182.6 52.1 181.5C47.9 180.5 47.9 182.9 41.9 182.9C35.9 182.9 37.4 186.6 31.4 187.8C25.4 189 22.5 189.9 22.1 196.4C21.7 203 23.6 209.4 27.1 207.2C30.6 205 37.8 205.5 43 205.2C48.2 204.9 51.5 211.6 49.2 214.1C46.8 216.6 41.6 210 36.5 208.5C31.4 206.9 34 212.8 34.1 217.8C34.2 222.8 35.7 222.3 39.2 219.9C44.3 216.3 49.5 219.2 50.1 220.4C51.5 223.3 50.2 226.3 45 226.3C39.8 226.3 32.4 228 28.1 230.9C23.8 233.8 35.3 235.8 40.2 238C45.1 240.2 43.6 244.9 41.5 250.5C39.4 256 45.7 252.1 52.1 252.1C58.5 252.1 54.1 245.9 60.2 247C66.4 248 66.5 244.3 70.4 250.5C74.3 256.7 81.4 250.4 85.9 256C90.4 261.6 94.8 253.4 101 265.2C107.2 277 108.6 268.6 114.4 267.9C120.2 267.2 119.8 267 120 271.1C120.3 275.2 126.7 270.7 132.1 269.5C137.6 268.3 140 274.5 139 278.1C139 278.2 138.9 278.3 138.9 278.4C143.6 278.1 146.7 277.2 148.3 274.1Z" stroke="#005645" stroke-width="2.1432"/>
<path d="M211.9 200.6C217.4 200.6 220.1 197.6 223.7 200.4C227.3 203.2 227.7 200.5 231.5 201.5C235.2 202.5 240.6 198.5 243.5 198.2C246.4 197.9 249 202.2 250.1 199C251.2 195.8 255.4 191.2 256.1 196.9C256.7 202.6 263.5 203.8 263.9 207.6C264.2 211.3 284.1 193.7 284.3 203.2C284.5 212.7 290.8 214.5 296.1 216.6C301.4 218.7 307.6 229 307.6 220.3C307.6 211.6 310.3 212.7 311.8 205.1C313.3 197.5 302 185.1 310 182.8C318.1 180.5 332 190.4 333.4 181.2C334.9 172 340.2 167.3 340.2 167.3C340.2 167.3 336.8 156.5 341.7 155.7C346.6 154.9 344.1 149.1 350.3 141C356.4 132.9 355.6 132.9 353.5 123.9C351.4 114.8 346.4 115.5 351.1 108.4C355.8 101.3 352.4 91.8998 345 88.1998C341.6 86.4998 338.4 83.2998 335.9 80.2998C335.5 80.6998 335.1 80.9998 334.7 80.9998C331.3 80.9998 310.4 96.1998 302.7 96.1998C295 96.1998 285.4 100.5 279.2 105.8C273 111 271.1 112.5 269.5 119.4C267.9 126.3 275.7 124.6 280.1 125.4C284.6 126.2 282.7 129.1 276.3 129.1C269.9 129.1 263.6 142.7 255.1 140.1C246.6 137.5 232.3 135.1 226.5 133.3C220.7 131.5 212.2 130.6 208 135.5C203.8 140.5 203.9 126.3 200.4 121.6C196.9 116.9 203.7 116.4 203 111C202.3 105.6 193.6 108 187.9 109.8C182.3 111.6 180 105.7 171.6 104.7C163.2 103.7 173.8 113.9 171.9 118.6C169.9 123.3 175.2 122.4 175.2 128.2C175.2 134 181 138.7 184.5 142.1C188 145.5 184.6 158.4 186.9 161.9C189.1 165.4 186.5 163.1 186.5 173.7C186.5 184.3 187.9 182.1 192.8 185.6C197.6 189.1 190.7 188.2 185.2 188.7C188 211.6 195.5 200.7 201.5 197.2C204.1 195.7 205.7 197.3 206.9 200.4C208.1 200.4 209.8 200.6 211.9 200.6Z" fill="white"/>
<path d="M211.9 200.6C217.4 200.6 220.1 197.6 223.7 200.4C227.3 203.2 227.7 200.5 231.5 201.5C235.2 202.5 240.6 198.5 243.5 198.2C246.4 197.9 249 202.2 250.1 199C251.2 195.8 255.4 191.2 256.1 196.9C256.7 202.6 263.5 203.8 263.9 207.6C264.2 211.3 284.1 193.7 284.3 203.2C284.5 212.7 290.8 214.5 296.1 216.6C301.4 218.7 307.6 229 307.6 220.3C307.6 211.6 310.3 212.7 311.8 205.1C313.3 197.5 302 185.1 310 182.8C318.1 180.5 332 190.4 333.4 181.2C334.9 172 340.2 167.3 340.2 167.3C340.2 167.3 336.8 156.5 341.7 155.7C346.6 154.9 344.1 149.1 350.3 141C356.4 132.9 355.6 132.9 353.5 123.9C351.4 114.8 346.4 115.5 351.1 108.4C355.8 101.3 352.4 91.8998 345 88.1998C341.6 86.4998 338.4 83.2998 335.9 80.2998C335.5 80.6998 335.1 80.9998 334.7 80.9998C331.3 80.9998 310.4 96.1998 302.7 96.1998C295 96.1998 285.4 100.5 279.2 105.8C273 111 271.1 112.5 269.5 119.4C267.9 126.3 275.7 124.6 280.1 125.4C284.6 126.2 282.7 129.1 276.3 129.1C269.9 129.1 263.6 142.7 255.1 140.1C246.6 137.5 232.3 135.1 226.5 133.3C220.7 131.5 212.2 130.6 208 135.5C203.8 140.5 203.9 126.3 200.4 121.6C196.9 116.9 203.7 116.4 203 111C202.3 105.6 193.6 108 187.9 109.8C182.3 111.6 180 105.7 171.6 104.7C163.2 103.7 173.8 113.9 171.9 118.6C169.9 123.3 175.2 122.4 175.2 128.2C175.2 134 181 138.7 184.5 142.1C188 145.5 184.6 158.4 186.9 161.9C189.1 165.4 186.5 163.1 186.5 173.7C186.5 184.3 187.9 182.1 192.8 185.6C197.6 189.1 190.7 188.2 185.2 188.7C188 211.6 195.5 200.7 201.5 197.2C204.1 195.7 205.7 197.3 206.9 200.4C208.1 200.4 209.8 200.6 211.9 200.6Z" stroke="#005645" stroke-width="2.1432"/>
<path d="M273.3 273.3C272.3 264.4 278.3 269.6 283.8 271.7C289.3 273.8 295.1 268.3 299.5 263.1C303.9 257.9 311.6 252.4 309.9 245.3C308.3 238.2 305 237.2 308.4 232.5C310.9 229.1 310.3 227.3 307.1 222.6C305.9 226.8 300.6 218.5 295.9 216.6C290.6 214.5 284.3 212.7 284.1 203.2C283.9 193.7 264.1 211.3 263.7 207.6C263.4 203.9 256.6 202.6 255.9 196.9C255.3 191.2 251 195.8 249.9 199C248.8 202.2 246.2 197.9 243.3 198.2C240.4 198.5 235.1 202.6 231.3 201.5C227.6 200.5 227.1 203.2 223.5 200.4C219.9 197.6 217.2 200.6 211.7 200.6C209.6 200.6 207.9 200.4 206.4 200.4C208.1 204.9 208.7 212.6 209.8 218.7C211.7 229.1 209.3 232.8 208.5 238.7C207.7 244.6 203.2 250.4 197.1 248.3C191 246.2 179.5 254.2 174.7 258.4C169.9 262.7 157.4 259.5 157.4 267.7C157.4 275.9 150.7 268.8 148.1 273.8C146.5 276.9 143.4 277.8 138.7 278.3C137.6 281.8 132.7 286.4 135.5 287.6C138.4 288.8 146.5 290.9 149.3 290.2C152.2 289.5 154.2 289 154.1 294.7C154 298.5 156 301.9 159.2 304.1C161.4 305.6 162.4 308.3 161 312C158.9 317.7 154.6 313.2 149.8 308.7C145 304.2 147.7 314.4 151 317C154.3 319.6 150.8 322.2 157.2 327.3C163.6 332.3 167.9 344.9 172.4 350.9C176.9 356.9 187.2 353.8 190.6 357.3C193.9 360.9 194.9 363.5 201.8 364.2C202.2 364.2 202.5 364.3 202.8 364.4C207.7 361.2 212.1 356 213.9 358.5C216.3 361.9 214.4 358.3 221.9 360.7C229.4 363.1 236.9 361 234 357.8C231.1 354.6 228.7 356.1 228.4 342.8C228.2 329.5 211 313.5 219.2 312.6C227.4 311.6 232.7 303.7 240.2 305.1C247.7 306.6 258.1 307.5 261.7 302.7C264 299.6 265.7 300.1 267.7 301.1C270.7 291.1 274 278.5 273.3 273.3Z" fill="white"/>
<path d="M273.3 273.3C272.3 264.4 278.3 269.6 283.8 271.7C289.3 273.8 295.1 268.3 299.5 263.1C303.9 257.9 311.6 252.4 309.9 245.3C308.3 238.2 305 237.2 308.4 232.5C310.9 229.1 310.3 227.3 307.1 222.6C305.9 226.8 300.6 218.5 295.9 216.6C290.6 214.5 284.3 212.7 284.1 203.2C283.9 193.7 264.1 211.3 263.7 207.6C263.4 203.9 256.6 202.6 255.9 196.9C255.3 191.2 251 195.8 249.9 199C248.8 202.2 246.2 197.9 243.3 198.2C240.4 198.5 235.1 202.6 231.3 201.5C227.6 200.5 227.1 203.2 223.5 200.4C219.9 197.6 217.2 200.6 211.7 200.6C209.6 200.6 207.9 200.4 206.4 200.4C208.1 204.9 208.7 212.6 209.8 218.7C211.7 229.1 209.3 232.8 208.5 238.7C207.7 244.6 203.2 250.4 197.1 248.3C191 246.2 179.5 254.2 174.7 258.4C169.9 262.7 157.4 259.5 157.4 267.7C157.4 275.9 150.7 268.8 148.1 273.8C146.5 276.9 143.4 277.8 138.7 278.3C137.6 281.8 132.7 286.4 135.5 287.6C138.4 288.8 146.5 290.9 149.3 290.2C152.2 289.5 154.2 289 154.1 294.7C154 298.5 156 301.9 159.2 304.1C161.4 305.6 162.4 308.3 161 312C158.9 317.7 154.6 313.2 149.8 308.7C145 304.2 147.7 314.4 151 317C154.3 319.6 150.8 322.2 157.2 327.3C163.6 332.3 167.9 344.9 172.4 350.9C176.9 356.9 187.2 353.8 190.6 357.3C193.9 360.9 194.9 363.5 201.8 364.2C202.2 364.2 202.5 364.3 202.8 364.4C207.7 361.2 212.1 356 213.9 358.5C216.3 361.9 214.4 358.3 221.9 360.7C229.4 363.1 236.9 361 234 357.8C231.1 354.6 228.7 356.1 228.4 342.8C228.2 329.5 211 313.5 219.2 312.6C227.4 311.6 232.7 303.7 240.2 305.1C247.7 306.6 258.1 307.5 261.7 302.7C264 299.6 265.7 300.1 267.7 301.1C270.7 291.1 274 278.5 273.3 273.3Z" stroke="#005645" stroke-width="2.1432"/>
<path d="M448.3 148.8C447.1 147.6 447.1 137.2 452.2 137.5C457.3 137.7 455.9 133.1 461.9 133.1C467.9 133.1 468.1 130.8 469.5 126.4C470.9 122 467.4 120.6 469.5 116.9C471.6 113.2 474.8 107.2 474.6 97.4998C474.5 91.5998 474.8 90.4998 476.3 88.7998C474.8 87.8998 473.7 87.0998 473.2 86.9998C471.5 86.4998 471.4 83.9998 475.4 81.0998C479.5 78.1998 476 74.7998 474 73.5998C469.2 70.6998 474 67.9998 476.1 65.1998C478.2 62.4998 468.9 60.9998 466.9 58.9998C464.9 56.9998 460.2 60.9998 457.3 57.3998C454.4 53.8998 453.1 54.8998 449.3 57.1998C445.9 59.1998 446.2 52.0998 444.2 48.2998C442.2 44.4998 428.5 46.9998 425.1 46.0998C421.7 45.1998 425.1 39.4998 425.1 34.2998C425.1 29.0998 420.4 24.0998 415.4 25.8998C410.4 27.6998 408.5 31.2998 404.6 29.2998C400.8 27.2998 407.5 20.6998 404.6 18.4998C402.6 16.9998 397 19.1998 394.6 13.9998C392 8.29977 391.7 7.09977 390.4 2.89977C389.1 -1.30023 386.7 3.89977 381.5 3.89977C376.3 3.89977 362.1 9.49977 357 11.5998C351.9 13.6998 344.3 15.0998 344.3 20.0998C344.3 25.0998 343.5 33.0998 343.5 40.1998C343.5 47.2998 345.9 52.9998 344 53.5998C342.2 54.0998 341.8 60.8998 345.7 64.5998C349.6 68.2998 348.2 68.8998 343.1 68.3998C338.7 67.8998 337.9 77.4998 335.6 80.1998C338.1 83.1998 341.3 86.3998 344.7 88.0998C352.1 91.7998 355.5 101.2 350.8 108.3C346.1 115.4 351.1 114.8 353.2 123.8C355.3 132.9 356.1 132.9 350 140.9C348.8 142.5 347.9 144.1 347.2 145.5C357.3 149.3 374.4 148.7 383.3 152C395.6 156.6 402 156.7 415.1 154.7C428.1 152.7 423.8 168.2 432.8 169.2C435.7 169.5 437.1 170.9 437.7 172.7C445.2 163.8 445.8 159.2 446.2 154.8C446.7 149.7 449.5 149.9 448.3 148.8Z" fill="white"/>
<path d="M448.3 148.8C447.1 147.6 447.1 137.2 452.2 137.5C457.3 137.7 455.9 133.1 461.9 133.1C467.9 133.1 468.1 130.8 469.5 126.4C470.9 122 467.4 120.6 469.5 116.9C471.6 113.2 474.8 107.2 474.6 97.4998C474.5 91.5998 474.8 90.4998 476.3 88.7998C474.8 87.8998 473.7 87.0998 473.2 86.9998C471.5 86.4998 471.4 83.9998 475.4 81.0998C479.5 78.1998 476 74.7998 474 73.5998C469.2 70.6998 474 67.9998 476.1 65.1998C478.2 62.4998 468.9 60.9998 466.9 58.9998C464.9 56.9998 460.2 60.9998 457.3 57.3998C454.4 53.8998 453.1 54.8998 449.3 57.1998C445.9 59.1998 446.2 52.0998 444.2 48.2998C442.2 44.4998 428.5 46.9998 425.1 46.0998C421.7 45.1998 425.1 39.4998 425.1 34.2998C425.1 29.0998 420.4 24.0998 415.4 25.8998C410.4 27.6998 408.5 31.2998 404.6 29.2998C400.8 27.2998 407.5 20.6998 404.6 18.4998C402.6 16.9998 397 19.1998 394.6 13.9998C392 8.29977 391.7 7.09977 390.4 2.89977C389.1 -1.30023 386.7 3.89977 381.5 3.89977C376.3 3.89977 362.1 9.49977 357 11.5998C351.9 13.6998 344.3 15.0998 344.3 20.0998C344.3 25.0998 343.5 33.0998 343.5 40.1998C343.5 47.2998 345.9 52.9998 344 53.5998C342.2 54.0998 341.8 60.8998 345.7 64.5998C349.6 68.2998 348.2 68.8998 343.1 68.3998C338.7 67.8998 337.9 77.4998 335.6 80.1998C338.1 83.1998 341.3 86.3998 344.7 88.0998C352.1 91.7998 355.5 101.2 350.8 108.3C346.1 115.4 351.1 114.8 353.2 123.8C355.3 132.9 356.1 132.9 350 140.9C348.8 142.5 347.9 144.1 347.2 145.5C357.3 149.3 374.4 148.7 383.3 152C395.6 156.6 402 156.7 415.1 154.7C428.1 152.7 423.8 168.2 432.8 169.2C435.7 169.5 437.1 170.9 437.7 172.7C445.2 163.8 445.8 159.2 446.2 154.8C446.7 149.7 449.5 149.9 448.3 148.8Z" stroke="#005645" stroke-width="2.1432"/>
<path d="M441.1 186.4C440.9 186.2 440.7 186 440.6 185.7C440.6 185.6 440.5 185.6 440.5 185.5C440.4 185.3 440.3 185.2 440.2 185C440.2 184.9 440.1 184.9 440.1 184.8C440 184.6 439.9 184.3 439.7 184.1V184C439.6 183.8 439.5 183.6 439.5 183.3C439.5 183.2 439.4 183.1 439.4 183C439.4 182.8 439.3 182.7 439.3 182.5C439.3 182.4 439.3 182.3 439.2 182.2C439.1 182 439.1 181.7 439 181.4C439 181.3 439 181.2 438.9 181C438.9 180.9 438.9 180.7 438.8 180.6C438.8 180.4 438.8 180.3 438.7 180.1C438.7 180 438.7 179.9 438.7 179.8C438.4 177.2 438.5 174.6 437.8 172.6C437.1 170.7 435.8 169.4 432.9 169.1C423.9 168.1 428.2 152.6 415.2 154.6C402.2 156.6 395.7 156.5 383.4 151.9C374.5 148.6 357.4 149.3 347.3 145.4C344.6 151.1 345.4 154.9 341.5 155.5C337.7 156.1 339 162.9 339.7 165.8C343.2 172 344.3 174.6 344.1 179.8C343.9 187.5 348.3 192.8 351.6 194C354.8 195.3 353.8 205 357.1 205C360.3 205 359.1 216.3 363.1 215.8C367.1 215.3 364.6 212.8 378.4 214.6C392.2 216.3 379.9 230.6 387.1 230.1C394.3 229.6 404.6 230.8 408.3 226.4C412 221.9 416 221.2 416 213.9C416 206.6 421 211.2 427.8 210.7C432 210.4 433.5 211 433.9 209.4C433.9 209.3 433.9 209.2 434 209.1C434 209.1 434 209 434 208.9C434 208.8 434 208.6 434 208.5C434 208.4 434 208.4 434 208.3C434 207.8 434 207.2 434 206.4C434 206.3 434 206.2 434 206.1C434 205.9 434 205.6 434 205.3C434 205.2 434 205 434 204.8C434 204.2 434 203.5 433.9 202.7C433.9 193.2 446.4 192 441.1 186.4Z" fill="white"/>
<path d="M441.1 186.4C440.9 186.2 440.7 186 440.6 185.7C440.6 185.6 440.5 185.6 440.5 185.5C440.4 185.3 440.3 185.2 440.2 185C440.2 184.9 440.1 184.9 440.1 184.8C440 184.6 439.9 184.3 439.7 184.1V184C439.6 183.8 439.5 183.6 439.5 183.3C439.5 183.2 439.4 183.1 439.4 183C439.4 182.8 439.3 182.7 439.3 182.5C439.3 182.4 439.3 182.3 439.2 182.2C439.1 182 439.1 181.7 439 181.4C439 181.3 439 181.2 438.9 181C438.9 180.9 438.9 180.7 438.8 180.6C438.8 180.4 438.8 180.3 438.7 180.1C438.7 180 438.7 179.9 438.7 179.8C438.4 177.2 438.5 174.6 437.8 172.6C437.1 170.7 435.8 169.4 432.9 169.1C423.9 168.1 428.2 152.6 415.2 154.6C402.2 156.6 395.7 156.5 383.4 151.9C374.5 148.6 357.4 149.3 347.3 145.4C344.6 151.1 345.4 154.9 341.5 155.5C337.7 156.1 339 162.9 339.7 165.8C343.2 172 344.3 174.6 344.1 179.8C343.9 187.5 348.3 192.8 351.6 194C354.8 195.3 353.8 205 357.1 205C360.3 205 359.1 216.3 363.1 215.8C367.1 215.3 364.6 212.8 378.4 214.6C392.2 216.3 379.9 230.6 387.1 230.1C394.3 229.6 404.6 230.8 408.3 226.4C412 221.9 416 221.2 416 213.9C416 206.6 421 211.2 427.8 210.7C432 210.4 433.5 211 433.9 209.4C433.9 209.3 433.9 209.2 434 209.1C434 209.1 434 209 434 208.9C434 208.8 434 208.6 434 208.5C434 208.4 434 208.4 434 208.3C434 207.8 434 207.2 434 206.4C434 206.3 434 206.2 434 206.1C434 205.9 434 205.6 434 205.3C434 205.2 434 205 434 204.8C434 204.2 434 203.5 433.9 202.7C433.9 193.2 446.4 192 441.1 186.4Z" stroke="#005645" stroke-width="2.1432"/>
<path d="M671.2 159.9C667.5 158.6 653.2 154.9 648.3 154.1C643.3 153.3 639.7 147.3 635.7 146C631.7 144.7 628.8 151.4 623.9 149.7C619 148 615.6 152.6 614.6 146.5C613.6 140.5 606.7 144.3 604.2 147.3C601.7 150.3 600.8 143.2 597.6 138.8C594.4 134.3 594.6 129.1 591.3 126.1C588 123.1 582.9 126.9 580.3 122.8C577.7 118.7 574.3 121.2 570.2 124.1C566.1 127 564.2 126.2 560.6 123.3C557.1 120.4 543.3 119.2 538.8 122.1C534.3 125 534.1 116.2 532.4 112.1C530.7 108 521.9 109.2 518.6 104.2C515.3 99.1995 511.9 98.3996 510.2 99.9996C508.5 101.6 506.4 103 506.4 98.5996C506.4 94.0996 510.1 90.8995 506.9 89.1995C503.7 87.4995 505.1 87.8995 508.2 79.8995C511.4 71.8995 506.9 73.4995 503.9 74.3995C500.9 75.2995 498.9 80.7996 498.9 87.0996C498.9 93.3996 493.5 87.4995 488.8 91.3995C485.4 94.1995 479.7 90.9996 476.1 88.7996C474.7 90.4996 474.3 91.5996 474.4 97.4996C474.6 107.2 471.4 113.2 469.3 116.9C467.2 120.6 470.7 122 469.3 126.4C467.9 130.8 467.7 133.1 461.7 133.1C455.7 133.1 457.1 137.7 452 137.5C446.9 137.3 446.9 147.7 448.1 148.8C449.3 150 446.5 149.7 446 154.8C445.6 159.2 445 163.8 437.5 172.7C438.9 176.5 437.3 182.5 440.8 186.4C446 192.1 433.6 193.2 433.8 202.7C433.9 206.4 434 208.3 433.7 209.3C436.2 212.2 440.1 212.5 443.2 213.5C448.5 215.1 441.1 227.1 451.8 227.8C462.4 228.5 455 244.2 470.8 241.7C486.5 239.2 491.6 229.2 502 237.3C512.4 245.4 503.2 258.8 514.9 262C526.7 265.2 536.2 263.8 540.1 262C544 260.2 551.4 263.6 552.1 253.7C552.8 243.8 563 234.7 570.4 235.7C577.8 236.6 569.5 244.9 580.1 241.2C590.7 237.5 588.2 250.7 593.5 244.2C598.8 237.7 602.7 244.4 610.1 248.8C617.5 253.2 614.3 264.8 618.2 265.4C620.1 265.7 621.5 269.2 622.4 272.8C623.5 273.3 624.5 274.2 625.1 275.6C625.9 277.7 627 278.7 629.2 279.3C630.5 279.6 632.2 279.8 634.4 280C637 280.2 639.2 278.3 641.2 275.8C643.7 272.6 645.6 268.3 647.1 266C649.8 261.9 643.2 263.3 643.2 259.7C643.2 256.2 644.4 255.6 644.4 248.7C644.4 241.8 646.6 237.2 646.9 233.2C647.2 229.3 644.9 229.7 644.9 223.9C644.9 218.1 648.6 219.6 651.2 217C653.8 214.4 650.9 210.6 650.9 206.4C650.9 202.2 655.4 198.5 655.5 193.7C655.6 188.8 660 180.7 665.6 178.5C671.2 176.3 673.1 167.6 675.3 163.3C677.8 159.1 674.9 161.2 671.2 159.9Z" fill="white"/>
<path d="M671.2 159.9C667.5 158.6 653.2 154.9 648.3 154.1C643.3 153.3 639.7 147.3 635.7 146C631.7 144.7 628.8 151.4 623.9 149.7C619 148 615.6 152.6 614.6 146.5C613.6 140.5 606.7 144.3 604.2 147.3C601.7 150.3 600.8 143.2 597.6 138.8C594.4 134.3 594.6 129.1 591.3 126.1C588 123.1 582.9 126.9 580.3 122.8C577.7 118.7 574.3 121.2 570.2 124.1C566.1 127 564.2 126.2 560.6 123.3C557.1 120.4 543.3 119.2 538.8 122.1C534.3 125 534.1 116.2 532.4 112.1C530.7 108 521.9 109.2 518.6 104.2C515.3 99.1995 511.9 98.3996 510.2 99.9996C508.5 101.6 506.4 103 506.4 98.5996C506.4 94.0996 510.1 90.8995 506.9 89.1995C503.7 87.4995 505.1 87.8995 508.2 79.8995C511.4 71.8995 506.9 73.4995 503.9 74.3995C500.9 75.2995 498.9 80.7996 498.9 87.0996C498.9 93.3996 493.5 87.4995 488.8 91.3995C485.4 94.1995 479.7 90.9996 476.1 88.7996C474.7 90.4996 474.3 91.5996 474.4 97.4996C474.6 107.2 471.4 113.2 469.3 116.9C467.2 120.6 470.7 122 469.3 126.4C467.9 130.8 467.7 133.1 461.7 133.1C455.7 133.1 457.1 137.7 452 137.5C446.9 137.3 446.9 147.7 448.1 148.8C449.3 150 446.5 149.7 446 154.8C445.6 159.2 445 163.8 437.5 172.7C438.9 176.5 437.3 182.5 440.8 186.4C446 192.1 433.6 193.2 433.8 202.7C433.9 206.4 434 208.3 433.7 209.3C436.2 212.2 440.1 212.5 443.2 213.5C448.5 215.1 441.1 227.1 451.8 227.8C462.4 228.5 455 244.2 470.8 241.7C486.5 239.2 491.6 229.2 502 237.3C512.4 245.4 503.2 258.8 514.9 262C526.7 265.2 536.2 263.8 540.1 262C544 260.2 551.4 263.6 552.1 253.7C552.8 243.8 563 234.7 570.4 235.7C577.8 236.6 569.5 244.9 580.1 241.2C590.7 237.5 588.2 250.7 593.5 244.2C598.8 237.7 602.7 244.4 610.1 248.8C617.5 253.2 614.3 264.8 618.2 265.4C620.1 265.7 621.5 269.2 622.4 272.8C623.5 273.3 624.5 274.2 625.1 275.6C625.9 277.7 627 278.7 629.2 279.3C630.5 279.6 632.2 279.8 634.4 280C637 280.2 639.2 278.3 641.2 275.8C643.7 272.6 645.6 268.3 647.1 266C649.8 261.9 643.2 263.3 643.2 259.7C643.2 256.2 644.4 255.6 644.4 248.7C644.4 241.8 646.6 237.2 646.9 233.2C647.2 229.3 644.9 229.7 644.9 223.9C644.9 218.1 648.6 219.6 651.2 217C653.8 214.4 650.9 210.6 650.9 206.4C650.9 202.2 655.4 198.5 655.5 193.7C655.6 188.8 660 180.7 665.6 178.5C671.2 176.3 673.1 167.6 675.3 163.3C677.8 159.1 674.9 161.2 671.2 159.9Z" stroke="#005645" stroke-width="2.1432"/>
<path d="M617.7 272.9C619.3 272.4 621.2 272.4 622.6 273C621.6 269.4 620.2 265.9 618.4 265.6C614.5 264.9 617.7 253.3 610.3 249C602.9 244.6 599 237.9 593.7 244.4C588.4 250.9 590.9 237.7 580.3 241.4C569.7 245.1 578 236.8 570.6 235.9C563.2 235 553 244 552.3 253.9C551.6 263.8 544.2 260.4 540.3 262.2C536.4 264 526.9 265.4 515.1 262.2C503.3 259 512.6 245.6 502.2 237.5C491.8 229.4 486.7 239.3 471 241.9C455.3 244.4 462.7 228.7 452 228C441.4 227.3 448.8 215.3 443.4 213.7C440.3 212.8 436.4 212.4 433.9 209.5C433.4 211.2 431.9 210.5 427.8 210.8C421.1 211.3 416 206.8 416 214C416 220.8 412.5 221.9 409 225.7C411.7 228.3 414.3 230.5 416.3 232.4C424.8 240.4 417.3 243.9 416.3 250.4C415.3 256.9 415.4 255.7 409.1 256C402.8 256.3 414.2 261.9 413.9 268.8C413.6 275.8 407.9 274.4 409.7 280.3C411.5 286.2 408.2 302.2 415.4 312.7C418.9 317.8 419.1 325 418.3 331.1C422.7 333.7 429.4 329.1 431.7 333.4C434.3 338.2 437.8 327.3 442 332.4C446.2 337.6 455.3 330.8 455.9 339.2C456.5 347.6 475 351.2 469.8 357.9C464.6 364.7 465.2 371.5 470.7 371.5C476.2 371.5 486.9 372.5 486.9 365.7C486.9 358.9 498.5 360.9 499.5 364.7C500.5 368.6 507.3 371.2 510.8 358.6C514.4 346 516.9 348.6 523.1 348.9C529.2 349.2 534.7 344.4 536.4 354.4C538 364.4 539 369.3 542.5 365.4C546.1 361.5 549.6 360.2 556.1 363.8C559.5 365.7 566.4 360.2 572.2 354.5C571.9 354.2 571.7 353.9 571.5 353.6C570.2 351.5 575.4 344 575.4 339.8C575.4 335.6 585.1 330.5 589.4 327.6C593.7 324.7 589.8 323.5 589.8 318.4C589.8 313.3 591.9 314.2 597.7 311.8C603.5 309.4 602.8 305.8 607.8 301.2C612.8 296.6 614.4 293.5 617.9 289C621.4 284.5 618.3 283.8 613.8 284.3C609.5 284.8 614.8 273.7 617.7 272.9Z" fill="white"/>
<path d="M617.7 272.9C619.3 272.4 621.2 272.4 622.6 273C621.6 269.4 620.2 265.9 618.4 265.6C614.5 264.9 617.7 253.3 610.3 249C602.9 244.6 599 237.9 593.7 244.4C588.4 250.9 590.9 237.7 580.3 241.4C569.7 245.1 578 236.8 570.6 235.9C563.2 235 553 244 552.3 253.9C551.6 263.8 544.2 260.4 540.3 262.2C536.4 264 526.9 265.4 515.1 262.2C503.3 259 512.6 245.6 502.2 237.5C491.8 229.4 486.7 239.3 471 241.9C455.3 244.4 462.7 228.7 452 228C441.4 227.3 448.8 215.3 443.4 213.7C440.3 212.8 436.4 212.4 433.9 209.5C433.4 211.2 431.9 210.5 427.8 210.8C421.1 211.3 416 206.8 416 214C416 220.8 412.5 221.9 409 225.7C411.7 228.3 414.3 230.5 416.3 232.4C424.8 240.4 417.3 243.9 416.3 250.4C415.3 256.9 415.4 255.7 409.1 256C402.8 256.3 414.2 261.9 413.9 268.8C413.6 275.8 407.9 274.4 409.7 280.3C411.5 286.2 408.2 302.2 415.4 312.7C418.9 317.8 419.1 325 418.3 331.1C422.7 333.7 429.4 329.1 431.7 333.4C434.3 338.2 437.8 327.3 442 332.4C446.2 337.6 455.3 330.8 455.9 339.2C456.5 347.6 475 351.2 469.8 357.9C464.6 364.7 465.2 371.5 470.7 371.5C476.2 371.5 486.9 372.5 486.9 365.7C486.9 358.9 498.5 360.9 499.5 364.7C500.5 368.6 507.3 371.2 510.8 358.6C514.4 346 516.9 348.6 523.1 348.9C529.2 349.2 534.7 344.4 536.4 354.4C538 364.4 539 369.3 542.5 365.4C546.1 361.5 549.6 360.2 556.1 363.8C559.5 365.7 566.4 360.2 572.2 354.5C571.9 354.2 571.7 353.9 571.5 353.6C570.2 351.5 575.4 344 575.4 339.8C575.4 335.6 585.1 330.5 589.4 327.6C593.7 324.7 589.8 323.5 589.8 318.4C589.8 313.3 591.9 314.2 597.7 311.8C603.5 309.4 602.8 305.8 607.8 301.2C612.8 296.6 614.4 293.5 617.9 289C621.4 284.5 618.3 283.8 613.8 284.3C609.5 284.8 614.8 273.7 617.7 272.9Z" stroke="#005645" stroke-width="2.1432"/>
<path d="M415.5 312.6C408.3 302.1 411.6 286.2 409.8 280.2C408 274.3 413.7 275.6 414 268.7C414.3 261.7 402.9 256.1 409.2 255.9C415.5 255.6 415.4 256.8 416.4 250.3C417.4 243.8 424.9 240.3 416.4 232.3C414.4 230.4 411.8 228.1 409.1 225.6C408.8 225.9 408.6 226.1 408.4 226.4C404.7 230.9 394.4 229.6 387.2 230.1C380 230.6 392.2 216.3 378.5 214.6C364.7 212.9 367.2 215.4 363.2 215.8C359.2 216.3 360.5 205 357.2 205C354 205 355 195.3 351.7 194C348.5 192.7 344 187.5 344.2 179.8C344.4 174.6 343.3 172 339.8 165.8C340 166.6 340.2 167.1 340.2 167.1C340.2 167.1 334.9 171.8 333.4 181C331.9 190.2 318.1 180.4 310 182.6C301.9 184.9 313.2 197.3 311.8 204.9C310.3 212.5 307.6 211.4 307.6 220.1C307.6 221.1 307.5 221.8 307.4 222.4C310.6 227.1 311.1 228.9 308.7 232.3C305.3 237 308.6 238.1 310.2 245.1C311.8 252.2 304.2 257.7 299.8 262.9C295.4 268.1 289.6 273.6 284.1 271.5C278.6 269.4 272.6 264.2 273.6 273.1C274.2 278.2 270.9 290.8 268 300.6C269.1 301.2 270.3 301.9 271.7 302.2C275.6 303.2 280.2 308.7 280.2 314.5C280.2 320.3 286.2 317.9 289.4 317.4C292.5 316.9 295.4 310.9 298.3 315.9C301.2 321 306.3 332.8 308.4 334.8C310.6 336.7 306 346.9 313.5 346.9C321 346.9 321.7 351.3 322.4 356.3C323.1 361.4 338.1 351.9 344.2 355.8C350.2 359.7 352.6 355.4 365.2 354.3C370.6 353.9 374.7 354.1 377.6 354.4C377.6 354 377.6 353.6 377.8 353.2C379.2 349.5 388.4 344.4 393.2 344.4C398 344.4 391.6 334.1 399 334.1C406.4 334.1 412.9 324.1 417.1 329.3C417.6 329.9 418.1 330.3 418.6 330.6C419.2 324.9 419 317.7 415.5 312.6Z" fill="white"/>
<path d="M415.5 312.6C408.3 302.1 411.6 286.2 409.8 280.2C408 274.3 413.7 275.6 414 268.7C414.3 261.7 402.9 256.1 409.2 255.9C415.5 255.6 415.4 256.8 416.4 250.3C417.4 243.8 424.9 240.3 416.4 232.3C414.4 230.4 411.8 228.1 409.1 225.6C408.8 225.9 408.6 226.1 408.4 226.4C404.7 230.9 394.4 229.6 387.2 230.1C380 230.6 392.2 216.3 378.5 214.6C364.7 212.9 367.2 215.4 363.2 215.8C359.2 216.3 360.5 205 357.2 205C354 205 355 195.3 351.7 194C348.5 192.7 344 187.5 344.2 179.8C344.4 174.6 343.3 172 339.8 165.8C340 166.6 340.2 167.1 340.2 167.1C340.2 167.1 334.9 171.8 333.4 181C331.9 190.2 318.1 180.4 310 182.6C301.9 184.9 313.2 197.3 311.8 204.9C310.3 212.5 307.6 211.4 307.6 220.1C307.6 221.1 307.5 221.8 307.4 222.4C310.6 227.1 311.1 228.9 308.7 232.3C305.3 237 308.6 238.1 310.2 245.1C311.8 252.2 304.2 257.7 299.8 262.9C295.4 268.1 289.6 273.6 284.1 271.5C278.6 269.4 272.6 264.2 273.6 273.1C274.2 278.2 270.9 290.8 268 300.6C269.1 301.2 270.3 301.9 271.7 302.2C275.6 303.2 280.2 308.7 280.2 314.5C280.2 320.3 286.2 317.9 289.4 317.4C292.5 316.9 295.4 310.9 298.3 315.9C301.2 321 306.3 332.8 308.4 334.8C310.6 336.7 306 346.9 313.5 346.9C321 346.9 321.7 351.3 322.4 356.3C323.1 361.4 338.1 351.9 344.2 355.8C350.2 359.7 352.6 355.4 365.2 354.3C370.6 353.9 374.7 354.1 377.6 354.4C377.6 354 377.6 353.6 377.8 353.2C379.2 349.5 388.4 344.4 393.2 344.4C398 344.4 391.6 334.1 399 334.1C406.4 334.1 412.9 324.1 417.1 329.3C417.6 329.9 418.1 330.3 418.6 330.6C419.2 324.9 419 317.7 415.5 312.6Z" stroke="#005645" stroke-width="2.1432"/>
<path d="M547 617.213L547 590.213" stroke="#005645" stroke-width="1.07163" stroke-dasharray="2.14 2.14"/>
<rect x="508.536" y="617.749" width="169.928" height="28.9284" rx="9.46419" fill="#005645" stroke="#005645" stroke-width="1.07163"/>
<path d="M528.687 626.816V637.213H527.322V628.917L524.006 637.213H522.791L519.46 628.947V637.213H518.095V626.816H519.731L523.421 635.548L527.052 626.816H528.687ZM534.247 628.872C535.047 628.872 535.722 629.072 536.272 629.472C536.832 629.872 537.222 630.407 537.442 631.077V628.977H538.807V637.213H537.442V635.113C537.222 635.783 536.832 636.318 536.272 636.718C535.722 637.118 535.047 637.318 534.247 637.318C533.516 637.318 532.866 637.148 532.296 636.808C531.726 636.468 531.276 635.983 530.946 635.353C530.626 634.713 530.466 633.963 530.466 633.103C530.466 632.242 530.626 631.492 530.946 630.852C531.276 630.212 531.726 629.722 532.296 629.382C532.866 629.042 533.516 628.872 534.247 628.872ZM534.637 630.087C533.797 630.087 533.121 630.357 532.611 630.897C532.111 631.427 531.861 632.162 531.861 633.103C531.861 634.043 532.111 634.783 532.611 635.323C533.121 635.853 533.797 636.118 534.637 636.118C535.177 636.118 535.657 635.993 536.077 635.743C536.507 635.493 536.842 635.143 537.082 634.693C537.322 634.233 537.442 633.703 537.442 633.103C537.442 632.503 537.322 631.972 537.082 631.512C536.842 631.052 536.507 630.702 536.077 630.462C535.657 630.212 535.177 630.087 534.637 630.087ZM542.346 630.642C542.616 630.072 543.011 629.632 543.531 629.322C544.051 629.002 544.671 628.842 545.391 628.842V630.327H544.971C544.201 630.327 543.571 630.527 543.081 630.927C542.591 631.317 542.346 631.967 542.346 632.878V637.213H540.98V628.977H542.346V630.642ZM549.319 628.872C550.249 628.872 550.994 629.117 551.554 629.607C552.124 630.087 552.469 630.737 552.589 631.557H551.284C551.224 631.067 551.019 630.667 550.669 630.357C550.329 630.037 549.869 629.877 549.289 629.877C548.799 629.877 548.414 629.997 548.133 630.237C547.863 630.467 547.728 630.782 547.728 631.182C547.728 631.482 547.818 631.727 547.998 631.917C548.188 632.097 548.419 632.237 548.689 632.337C548.969 632.427 549.349 632.528 549.829 632.638C550.439 632.778 550.929 632.923 551.299 633.073C551.679 633.213 551.999 633.443 552.259 633.763C552.529 634.083 552.664 634.513 552.664 635.053C552.664 635.723 552.409 636.268 551.899 636.688C551.399 637.108 550.729 637.318 549.889 637.318C548.909 637.318 548.108 637.083 547.488 636.613C546.868 636.143 546.503 635.488 546.393 634.648H547.713C547.763 635.148 547.978 635.553 548.358 635.863C548.749 636.173 549.259 636.328 549.889 636.328C550.359 636.328 550.724 636.208 550.984 635.968C551.254 635.728 551.389 635.413 551.389 635.023C551.389 634.703 551.294 634.448 551.104 634.258C550.914 634.068 550.679 633.923 550.399 633.823C550.119 633.723 549.734 633.618 549.244 633.508C548.634 633.368 548.143 633.228 547.773 633.088C547.413 632.948 547.103 632.728 546.843 632.427C546.593 632.117 546.468 631.702 546.468 631.182C546.468 630.492 546.723 629.937 547.233 629.517C547.743 629.087 548.439 628.872 549.319 628.872ZM562.065 632.638C562.065 632.928 562.045 633.178 562.005 633.388H555.419C555.449 634.328 555.714 635.033 556.214 635.503C556.724 635.973 557.344 636.208 558.074 636.208C558.734 636.208 559.285 636.043 559.725 635.713C560.175 635.373 560.45 634.923 560.55 634.363H562.005C561.905 634.933 561.68 635.443 561.33 635.893C560.99 636.343 560.545 636.693 559.995 636.943C559.445 637.193 558.824 637.318 558.134 637.318C557.344 637.318 556.644 637.148 556.034 636.808C555.424 636.468 554.944 635.983 554.594 635.353C554.254 634.713 554.084 633.963 554.084 633.103C554.084 632.242 554.254 631.492 554.594 630.852C554.944 630.212 555.424 629.722 556.034 629.382C556.644 629.042 557.344 628.872 558.134 628.872C558.934 628.872 559.63 629.042 560.22 629.382C560.82 629.722 561.275 630.177 561.585 630.747C561.905 631.317 562.065 631.947 562.065 632.638ZM560.685 632.728C560.715 632.117 560.615 631.607 560.385 631.197C560.155 630.787 559.84 630.482 559.44 630.282C559.039 630.082 558.604 629.982 558.134 629.982C557.384 629.982 556.754 630.217 556.244 630.687C555.734 631.147 555.459 631.827 555.419 632.728H560.685ZM563.611 626.561C563.611 626.311 563.696 626.111 563.866 625.961C564.036 625.801 564.261 625.721 564.541 625.721C564.821 625.721 565.046 625.801 565.216 625.961C565.386 626.111 565.471 626.311 565.471 626.561C565.471 626.811 565.386 627.016 565.216 627.177C565.046 627.327 564.821 627.402 564.541 627.402C564.261 627.402 564.036 627.327 563.866 627.177C563.696 627.016 563.611 626.811 563.611 626.561ZM565.216 628.977V637.213H563.851V628.977H565.216ZM568.776 626.111V637.213H567.411V626.111H568.776ZM572.336 626.111V637.213H570.971V626.111H572.336ZM582.108 632.638C582.108 632.928 582.088 633.178 582.048 633.388H575.462C575.492 634.328 575.757 635.033 576.257 635.503C576.767 635.973 577.387 636.208 578.117 636.208C578.777 636.208 579.327 636.043 579.767 635.713C580.217 635.373 580.493 634.923 580.593 634.363H582.048C581.948 634.933 581.723 635.443 581.373 635.893C581.033 636.343 580.588 636.693 580.037 636.943C579.487 637.193 578.867 637.318 578.177 637.318C577.387 637.318 576.687 637.148 576.077 636.808C575.467 636.468 574.987 635.983 574.636 635.353C574.296 634.713 574.126 633.963 574.126 633.103C574.126 632.242 574.296 631.492 574.636 630.852C574.987 630.212 575.467 629.722 576.077 629.382C576.687 629.042 577.387 628.872 578.177 628.872C578.977 628.872 579.672 629.042 580.262 629.382C580.863 629.722 581.318 630.177 581.628 630.747C581.948 631.317 582.108 631.947 582.108 632.638ZM580.728 632.728C580.758 632.117 580.658 631.607 580.428 631.197C580.197 630.787 579.882 630.482 579.482 630.282C579.082 630.082 578.647 629.982 578.177 629.982C577.427 629.982 576.797 630.217 576.287 630.687C575.777 631.147 575.502 631.827 575.462 632.728H580.728ZM592.281 631.137V632.292H586.28V631.137H592.281ZM599.771 626.531C601.001 626.531 602.031 626.836 602.861 627.447C603.701 628.057 604.266 628.887 604.557 629.937H603.116C602.866 629.297 602.446 628.782 601.856 628.392C601.276 628.002 600.586 627.807 599.786 627.807C599.066 627.807 598.42 627.977 597.85 628.317C597.28 628.647 596.83 629.122 596.5 629.742C596.18 630.362 596.02 631.092 596.02 631.932C596.02 632.793 596.185 633.538 596.515 634.168C596.845 634.788 597.3 635.268 597.88 635.608C598.47 635.938 599.146 636.103 599.906 636.103C600.556 636.103 601.151 635.963 601.691 635.683C602.231 635.403 602.671 634.998 603.011 634.468C603.361 633.928 603.571 633.298 603.641 632.578H599.486V631.557H604.797V632.818C604.707 633.658 604.447 634.418 604.016 635.098C603.586 635.778 603.006 636.318 602.276 636.718C601.546 637.118 600.716 637.318 599.786 637.318C598.765 637.318 597.865 637.093 597.085 636.643C596.305 636.183 595.695 635.548 595.255 634.738C594.825 633.918 594.61 632.983 594.61 631.932C594.61 630.882 594.825 629.952 595.255 629.142C595.695 628.322 596.305 627.682 597.085 627.222C597.865 626.761 598.76 626.531 599.771 626.531ZM610.022 628.872C610.822 628.872 611.498 629.072 612.048 629.472C612.608 629.872 612.998 630.407 613.218 631.077V628.977H614.583V637.213H613.218V635.113C612.998 635.783 612.608 636.318 612.048 636.718C611.498 637.118 610.822 637.318 610.022 637.318C609.292 637.318 608.642 637.148 608.072 636.808C607.502 636.468 607.052 635.983 606.722 635.353C606.402 634.713 606.242 633.963 606.242 633.103C606.242 632.242 606.402 631.492 606.722 630.852C607.052 630.212 607.502 629.722 608.072 629.382C608.642 629.042 609.292 628.872 610.022 628.872ZM610.412 630.087C609.572 630.087 608.897 630.357 608.387 630.897C607.887 631.427 607.637 632.162 607.637 633.103C607.637 634.043 607.887 634.783 608.387 635.323C608.897 635.853 609.572 636.118 610.412 636.118C610.953 636.118 611.433 635.993 611.853 635.743C612.283 635.493 612.618 635.143 612.858 634.693C613.098 634.233 613.218 633.703 613.218 633.103C613.218 632.503 613.098 631.972 612.858 631.512C612.618 631.052 612.283 630.702 611.853 630.462C611.433 630.212 610.953 630.087 610.412 630.087ZM618.121 630.642C618.391 630.072 618.786 629.632 619.306 629.322C619.827 629.002 620.447 628.842 621.167 628.842V630.327H620.747C619.977 630.327 619.346 630.527 618.856 630.927C618.366 631.317 618.121 631.967 618.121 632.878V637.213H616.756V628.977H618.121V630.642ZM625.89 628.872C626.69 628.872 627.365 629.072 627.915 629.472C628.475 629.872 628.865 630.407 629.085 631.077V626.111H630.45V637.213H629.085V635.113C628.865 635.783 628.475 636.318 627.915 636.718C627.365 637.118 626.69 637.318 625.89 637.318C625.159 637.318 624.509 637.148 623.939 636.808C623.369 636.468 622.919 635.983 622.589 635.353C622.269 634.713 622.109 633.963 622.109 633.103C622.109 632.242 622.269 631.492 622.589 630.852C622.919 630.212 623.369 629.722 623.939 629.382C624.509 629.042 625.159 628.872 625.89 628.872ZM626.28 630.087C625.439 630.087 624.764 630.357 624.254 630.897C623.754 631.427 623.504 632.162 623.504 633.103C623.504 634.043 623.754 634.783 624.254 635.323C624.764 635.853 625.439 636.118 626.28 636.118C626.82 636.118 627.3 635.993 627.72 635.743C628.15 635.493 628.485 635.143 628.725 634.693C628.965 634.233 629.085 633.703 629.085 633.103C629.085 632.503 628.965 631.972 628.725 631.512C628.485 631.052 628.15 630.702 627.72 630.462C627.3 630.212 626.82 630.087 626.28 630.087ZM635.999 628.872C636.799 628.872 637.474 629.072 638.024 629.472C638.584 629.872 638.974 630.407 639.194 631.077V628.977H640.56V637.213H639.194V635.113C638.974 635.783 638.584 636.318 638.024 636.718C637.474 637.118 636.799 637.318 635.999 637.318C635.269 637.318 634.619 637.148 634.048 636.808C633.478 636.468 633.028 635.983 632.698 635.353C632.378 634.713 632.218 633.963 632.218 633.103C632.218 632.242 632.378 631.492 632.698 630.852C633.028 630.212 633.478 629.722 634.048 629.382C634.619 629.042 635.269 628.872 635.999 628.872ZM636.389 630.087C635.549 630.087 634.874 630.357 634.364 630.897C633.863 631.427 633.613 632.162 633.613 633.103C633.613 634.043 633.863 634.783 634.364 635.323C634.874 635.853 635.549 636.118 636.389 636.118C636.929 636.118 637.409 635.993 637.829 635.743C638.259 635.493 638.594 635.143 638.834 634.693C639.074 634.233 639.194 633.703 639.194 633.103C639.194 632.503 639.074 631.972 638.834 631.512C638.594 631.052 638.259 630.702 637.829 630.462C637.409 630.212 636.929 630.087 636.389 630.087ZM647.068 628.842C648.028 628.842 648.804 629.152 649.394 629.772C649.984 630.382 650.279 631.267 650.279 632.427V637.213H648.914V632.548C648.914 631.727 648.704 631.097 648.284 630.657C647.863 630.217 647.293 629.997 646.573 629.997C645.823 629.997 645.223 630.242 644.773 630.732C644.323 631.212 644.098 631.917 644.098 632.848V637.213H642.733V628.977H644.098V630.927C644.308 630.257 644.678 629.742 645.208 629.382C645.748 629.022 646.368 628.842 647.068 628.842ZM656.709 628.842C657.669 628.842 658.444 629.152 659.034 629.772C659.624 630.382 659.919 631.267 659.919 632.427V637.213H658.554V632.548C658.554 631.727 658.344 631.097 657.924 630.657C657.504 630.217 656.934 629.997 656.214 629.997C655.464 629.997 654.863 630.242 654.413 630.732C653.963 631.212 653.738 631.917 653.738 632.848V637.213H652.373V628.977H653.738V630.927C653.948 630.257 654.318 629.742 654.848 629.382C655.389 629.022 656.009 628.842 656.709 628.842ZM669.59 632.638C669.59 632.928 669.57 633.178 669.53 633.388H662.944C662.974 634.328 663.239 635.033 663.739 635.503C664.249 635.973 664.869 636.208 665.599 636.208C666.259 636.208 666.809 636.043 667.249 635.713C667.699 635.373 667.975 634.923 668.075 634.363H669.53C669.43 634.933 669.205 635.443 668.855 635.893C668.515 636.343 668.07 636.693 667.519 636.943C666.969 637.193 666.349 637.318 665.659 637.318C664.869 637.318 664.169 637.148 663.559 636.808C662.949 636.468 662.468 635.983 662.118 635.353C661.778 634.713 661.608 633.963 661.608 633.103C661.608 632.242 661.778 631.492 662.118 630.852C662.468 630.212 662.949 629.722 663.559 629.382C664.169 629.042 664.869 628.872 665.659 628.872C666.459 628.872 667.154 629.042 667.744 629.382C668.345 629.722 668.8 630.177 669.11 630.747C669.43 631.317 669.59 631.947 669.59 632.638ZM668.21 632.728C668.24 632.117 668.14 631.607 667.909 631.197C667.679 630.787 667.364 630.482 666.964 630.282C666.564 630.082 666.129 629.982 665.659 629.982C664.909 629.982 664.279 630.217 663.769 630.687C663.259 631.147 662.984 631.827 662.944 632.728H668.21Z" fill="white"/>
<path d="M554.596 578.113C553.636 573.898 549.953 572 546.717 572C546.717 572 546.717 572 546.708 572C543.482 572 539.79 573.889 538.83 578.104C537.761 582.812 540.649 586.799 543.263 589.308C544.231 590.238 545.474 590.704 546.717 590.704C547.96 590.704 549.203 590.238 550.163 589.308C552.777 586.799 555.665 582.821 554.596 578.113Z" fill="#C4D3D0"/>
<path d="M546.718 582.685C548.308 582.685 549.597 581.398 549.597 579.811C549.597 578.223 548.308 576.937 546.718 576.937C545.128 576.937 543.839 578.223 543.839 579.811C543.839 581.398 545.128 582.685 546.718 582.685Z" fill="#005645"/>
</svg>
