<svg width="796" height="763" viewBox="0 0 796 763" fill="none" xmlns="http://www.w3.org/2000/svg">
<path d="M527.6 581.3C527.6 581.3 505.4 587.3 513.4 572.4C514.6 570.2 515.9 568.6 517.4 567.3C516.8 567.2 516.2 567.1 515.6 567C515.5 567 515.5 567 515.4 567C515.2 567 515 566.9 514.8 566.9C514.7 566.9 514.7 566.9 514.6 566.9C514.4 566.9 514.2 566.8 514 566.7C511.9 565.9 506.8 563.7 506.6 565.6C506.4 567.5 502.1 565.8 497.5 565.4C493 565 490.3 564.4 490.3 557.4C490.3 550.4 485.4 549.3 483.7 543.2C482 537.1 478.8 531.8 475.2 527.5C471.6 523.1 470.5 526.9 468 528.6C465.5 530.3 459.7 527.6 459.1 520.1C458.5 512.5 449.6 527.7 446 523.9C442.4 520.1 437.9 536.8 436 542.1C434.1 547.4 431.3 529.6 427.3 523.5C423.3 517.4 418.2 524.3 416.5 531.1C414.8 537.9 409.5 543.6 403.8 542.3C398.1 541 395.8 544.2 394.2 538.5C392.6 532.8 396.8 530.9 393.2 525.4C389.6 519.9 394.2 516.3 394.2 516.3C394.2 516.3 386.5 519.2 381.7 520.4C376.9 521.6 371.8 516.5 366.8 515.6C361.7 514.6 357.9 515.4 357.9 520.9C357.9 526.4 352.1 537.5 347.1 537.8C342 538 341.6 548.2 337.7 548.2C333.8 548.2 337.7 555.4 337.7 561.2C337.7 567 332.6 561.2 332.9 565.1C333.1 569 330.5 573.8 327.4 574C324.3 574.2 319 585.3 315.8 582.9C312.7 580.5 303 588 297 586.5C291 585 289.1 591.3 286.2 587.5C283.3 583.6 280.7 592.6 275.8 592.6C270.9 592.6 271.9 598.1 271.7 605.9C271.5 613.6 266.2 617 273.4 616.7C280.6 616.5 283.4 625.7 283.4 632.7C283.4 639.6 275.6 647 274.6 651.5C273.5 656 267.5 660.9 265.9 665.4C265.7 666.1 265.9 667.9 266.4 670.7C267.3 670.4 268.2 670.2 269.1 670C278.4 668.1 276.5 676.9 280.1 680C283.7 683.1 290.8 680.2 294.4 680.2C298 680.2 299.9 684 300.6 680C301.3 675.9 313.2 684.8 318.2 684.8C323.2 684.8 316.6 671.4 321.6 671.4C326.6 671.4 335.6 671.7 339.4 680.8C341 684.7 343.4 684.6 345.6 683.2C348.7 681.2 352.7 681.7 355.1 684.4C356.1 685.5 357.3 686.3 358.3 686.1C361.7 685.5 371.1 686.7 373.6 689.2C376.1 691.7 373.3 696.4 378.3 697.3C383.3 698.2 383 702 389.5 704.2C396 706.4 400.7 700.1 407 700.1C413.2 700.1 417 707.9 421.6 702.1C426.3 696.2 435 701.1 442.8 702C450.5 702.9 441.6 695.1 441 682.4C440.4 669.6 439.9 657.7 444.7 650.3C448.2 644.9 457 642.2 461.3 642.6C465.6 643 466.2 640.6 470.3 634.6C474.4 628.5 482.4 627.4 485.7 624.5C489 621.6 493.1 617.1 494.9 624.3C495.9 628.3 498.1 628.6 500.8 628.2C504.4 622.1 511.5 616.4 511.5 614.1C511.5 611.1 516.1 609 521.1 610.8C521.2 610.8 521.2 610.8 521.3 610.8C521.8 611 522.2 611 522.5 611H522.6C522.7 611 522.8 611 522.9 611C522.9 611 523 611 523 610.9C523.1 610.9 523.2 610.8 523.2 610.8L523.3 610.7L523.4 610.6C523.4 610.6 523.4 610.5 523.5 610.5C523.5 610.4 523.6 610.3 523.6 610.3C523.6 610.2 523.6 610.2 523.6 610.1C523.6 610 523.6 609.9 523.7 609.9C523.7 609.9 523.7 609.8 523.7 609.7C523.7 609.6 523.7 609.5 523.7 609.3C523.7 609 523.7 608.7 523.7 608.3C523.7 607.8 523.6 607.2 523.5 606.6C523.5 606.3 523.4 606 523.4 605.7C523.4 605.5 523.4 605.4 523.3 605.2C523.2 604.4 523 603.4 522.9 602.5C522.8 602 522.8 601.4 522.7 600.8C522.7 600.7 522.7 600.6 522.7 600.4C522.7 599.8 522.6 599.2 522.6 598.6C522.6 598.1 522.6 597.7 522.6 597.4C522.6 597.4 522.6 597.4 522.6 597.3C522.6 596.9 522.7 596.6 522.7 596.3V596.2C522.7 595.9 522.8 595.7 522.9 595.5V595.4C523 595.2 523 595 523.1 594.9V594.8C523.2 594.7 523.3 594.5 523.3 594.4C523.3 594.4 523.3 594.3 523.4 594.3C523.5 594.2 523.6 594.1 523.7 594.1L523.8 594C523.9 593.9 524 593.9 524.1 593.8C524.1 593.8 524.2 593.8 524.3 593.7C524.4 593.7 524.5 593.6 524.6 593.6C524.7 593.6 524.8 593.6 524.8 593.5C526 593.2 527.6 593.3 529.2 591.7C532.6 588.1 531.9 585.8 527.6 581.3Z" fill="white"/>
<path d="M527.6 581.3C527.6 581.3 505.4 587.3 513.4 572.4C514.6 570.2 515.9 568.6 517.4 567.3C516.8 567.2 516.2 567.1 515.6 567C515.5 567 515.5 567 515.4 567C515.2 567 515 566.9 514.8 566.9C514.7 566.9 514.7 566.9 514.6 566.9C514.4 566.9 514.2 566.8 514 566.7C511.9 565.9 506.8 563.7 506.6 565.6C506.4 567.5 502.1 565.8 497.5 565.4C493 565 490.3 564.4 490.3 557.4C490.3 550.4 485.4 549.3 483.7 543.2C482 537.1 478.8 531.8 475.2 527.5C471.6 523.1 470.5 526.9 468 528.6C465.5 530.3 459.7 527.6 459.1 520.1C458.5 512.5 449.6 527.7 446 523.9C442.4 520.1 437.9 536.8 436 542.1C434.1 547.4 431.3 529.6 427.3 523.5C423.3 517.4 418.2 524.3 416.5 531.1C414.8 537.9 409.5 543.6 403.8 542.3C398.1 541 395.8 544.2 394.2 538.5C392.6 532.8 396.8 530.9 393.2 525.4C389.6 519.9 394.2 516.3 394.2 516.3C394.2 516.3 386.5 519.2 381.7 520.4C376.9 521.6 371.8 516.5 366.8 515.6C361.7 514.6 357.9 515.4 357.9 520.9C357.9 526.4 352.1 537.5 347.1 537.8C342 538 341.6 548.2 337.7 548.2C333.8 548.2 337.7 555.4 337.7 561.2C337.7 567 332.6 561.2 332.9 565.1C333.1 569 330.5 573.8 327.4 574C324.3 574.2 319 585.3 315.8 582.9C312.7 580.5 303 588 297 586.5C291 585 289.1 591.3 286.2 587.5C283.3 583.6 280.7 592.6 275.8 592.6C270.9 592.6 271.9 598.1 271.7 605.9C271.5 613.6 266.2 617 273.4 616.7C280.6 616.5 283.4 625.7 283.4 632.7C283.4 639.6 275.6 647 274.6 651.5C273.5 656 267.5 660.9 265.9 665.4C265.7 666.1 265.9 667.9 266.4 670.7C267.3 670.4 268.2 670.2 269.1 670C278.4 668.1 276.5 676.9 280.1 680C283.7 683.1 290.8 680.2 294.4 680.2C298 680.2 299.9 684 300.6 680C301.3 675.9 313.2 684.8 318.2 684.8C323.2 684.8 316.6 671.4 321.6 671.4C326.6 671.4 335.6 671.7 339.4 680.8C341 684.7 343.4 684.6 345.6 683.2C348.7 681.2 352.7 681.7 355.1 684.4C356.1 685.5 357.3 686.3 358.3 686.1C361.7 685.5 371.1 686.7 373.6 689.2C376.1 691.7 373.3 696.4 378.3 697.3C383.3 698.2 383 702 389.5 704.2C396 706.4 400.7 700.1 407 700.1C413.2 700.1 417 707.9 421.6 702.1C426.3 696.2 435 701.1 442.8 702C450.5 702.9 441.6 695.1 441 682.4C440.4 669.6 439.9 657.7 444.7 650.3C448.2 644.9 457 642.2 461.3 642.6C465.6 643 466.2 640.6 470.3 634.6C474.4 628.5 482.4 627.4 485.7 624.5C489 621.6 493.1 617.1 494.9 624.3C495.9 628.3 498.1 628.6 500.8 628.2C504.4 622.1 511.5 616.4 511.5 614.1C511.5 611.1 516.1 609 521.1 610.8C521.2 610.8 521.2 610.8 521.3 610.8C521.8 611 522.2 611 522.5 611H522.6C522.7 611 522.8 611 522.9 611C522.9 611 523 611 523 610.9C523.1 610.9 523.2 610.8 523.2 610.8L523.3 610.7L523.4 610.6C523.4 610.6 523.4 610.5 523.5 610.5C523.5 610.4 523.6 610.3 523.6 610.3C523.6 610.2 523.6 610.2 523.6 610.1C523.6 610 523.6 609.9 523.7 609.9C523.7 609.9 523.7 609.8 523.7 609.7C523.7 609.6 523.7 609.5 523.7 609.3C523.7 609 523.7 608.7 523.7 608.3C523.7 607.8 523.6 607.2 523.5 606.6C523.5 606.3 523.4 606 523.4 605.7C523.4 605.5 523.4 605.4 523.3 605.2C523.2 604.4 523 603.4 522.9 602.5C522.8 602 522.8 601.4 522.7 600.8C522.7 600.7 522.7 600.6 522.7 600.4C522.7 599.8 522.6 599.2 522.6 598.6C522.6 598.1 522.6 597.7 522.6 597.4C522.6 597.4 522.6 597.4 522.6 597.3C522.6 596.9 522.7 596.6 522.7 596.3V596.2C522.7 595.9 522.8 595.7 522.9 595.5V595.4C523 595.2 523 595 523.1 594.9V594.8C523.2 594.7 523.3 594.5 523.3 594.4C523.3 594.4 523.3 594.3 523.4 594.3C523.5 594.2 523.6 594.1 523.7 594.1L523.8 594C523.9 593.9 524 593.9 524.1 593.8C524.1 593.8 524.2 593.8 524.3 593.7C524.4 593.7 524.5 593.6 524.6 593.6C524.7 593.6 524.8 593.6 524.8 593.5C526 593.2 527.6 593.3 529.2 591.7C532.6 588.1 531.9 585.8 527.6 581.3Z" stroke="#005645" strokeWidth="2.1432"/>
<path d="M579.2 420.6C572.7 417 569.2 418.3 565.6 422.2C562 426.1 561.1 421.2 559.5 411.2C557.9 401.2 552.4 406 546.2 405.7C540.1 405.4 537.5 402.8 533.9 415.4C530.3 428 523.6 425.4 522.6 421.5C521.6 417.6 510 415.7 510 422.5C510 429.3 499.3 428.3 493.8 428.3C488.3 428.3 487.7 421.5 492.9 414.7C498.1 407.9 479.6 404.4 479 396C478.4 387.6 469.3 394.4 465.1 389.2C460.9 384 457.3 395 454.8 390.2C452.2 385.4 444.1 391.8 439.9 386.6C435.7 381.4 429.2 391.4 421.8 391.4C414.4 391.4 420.8 401.7 416 401.7C411.2 401.7 402 406.8 400.6 410.5C399.2 414.2 406.6 416.8 411.7 425.7C416.7 434.6 418.2 431.2 418.2 443C418.2 454.8 407.9 452.5 407.9 458.2C407.9 463.9 413.4 466 414.8 473.4C416.2 480.9 410.2 485.2 407.9 484.6C405.6 484 407 492.4 404.4 492.6C401.8 492.9 401.8 507 398.6 507.3C395.4 507.6 394.1 509.9 394.4 515.9C394.4 515.9 389.7 519.5 393.4 525C397 530.5 392.8 532.4 394.4 538.1C396 543.8 398.3 540.6 404 541.9C409.7 543.2 415 537.5 416.7 530.7C418.4 523.9 423.5 517.1 427.5 523.1C431.5 529.2 434.3 547 436.2 541.7C438.1 536.4 442.6 519.7 446.2 523.5C449.8 527.3 458.7 512.1 459.3 519.7C459.9 527.3 465.7 529.9 468.2 528.2C470.7 526.5 471.8 522.7 475.4 527.1C479 531.5 482.2 536.8 483.9 542.8C485.6 548.9 490.5 550 490.5 557C490.5 564 493.2 564.6 497.7 565C502.2 565.4 506.6 567.1 506.8 565.2C507 563.3 512.1 565.6 514.2 566.3C514.9 566.5 516.1 566.8 517.5 566.9C526.2 559.5 539.2 566 544.1 566.7C549.9 567.5 551.3 570.8 554.6 570.8C557.9 570.8 557.9 570.8 559.6 572.5C561.3 574.2 568.2 581.1 568.7 576.6C569.2 572.2 573.9 570.8 573.7 567C573.4 563.1 567.4 563.4 563.8 561.2C560.2 559 561.6 553.2 566.6 552.9C571.6 552.6 571.3 547.7 571.3 542.1C571.3 536.6 580.4 539.6 580.7 532.2C581 524.8 590.9 531.4 592 524.5C593.1 517.6 596.7 524.5 604.1 524.5C611.5 524.5 613.5 521.7 609.9 518.4C606.3 515.1 601.1 511.5 602.7 506.8C604.4 502.1 612.9 511.2 615.4 507.6C617.9 504 620.6 505.4 625.2 506.5C625.2 503.8 628.7 504 633.3 505.7C637.9 507.4 643.8 497.6 647.6 495.5C651.4 493.4 650.2 490.6 651.5 486.7C652.8 482.8 655.2 482.4 648.3 480C641.5 477.6 642.8 473.6 642.1 466.8C641.4 460 632.4 461.6 632.4 456.6C632.4 451.6 636.6 452.4 642.8 449.9C649 447.4 640.4 436.1 637.7 438.4C635 440.6 636.7 431.7 632.5 431.1C628.3 430.4 635.7 423.5 634.2 421.7C632.8 419.9 632.2 415.7 632.1 411.3C632 407 615.1 412.1 612.3 415.9C609.6 419.7 607.1 413.7 604.2 416.4C601.3 419.1 603.8 422 604.9 425.7C605.9 429.4 596.9 430.7 592.7 430.8C588.5 430.9 588 424.6 595.3 423.6C602.6 422.6 596.6 419.7 598.2 416.4C599.5 413.6 597.1 412.5 595.5 411C589.5 417 582.6 422.5 579.2 420.6Z" fill="white"/>
<path d="M579.2 420.6C572.7 417 569.2 418.3 565.6 422.2C562 426.1 561.1 421.2 559.5 411.2C557.9 401.2 552.4 406 546.2 405.7C540.1 405.4 537.5 402.8 533.9 415.4C530.3 428 523.6 425.4 522.6 421.5C521.6 417.6 510 415.7 510 422.5C510 429.3 499.3 428.3 493.8 428.3C488.3 428.3 487.7 421.5 492.9 414.7C498.1 407.9 479.6 404.4 479 396C478.4 387.6 469.3 394.4 465.1 389.2C460.9 384 457.3 395 454.8 390.2C452.2 385.4 444.1 391.8 439.9 386.6C435.7 381.4 429.2 391.4 421.8 391.4C414.4 391.4 420.8 401.7 416 401.7C411.2 401.7 402 406.8 400.6 410.5C399.2 414.2 406.6 416.8 411.7 425.7C416.7 434.6 418.2 431.2 418.2 443C418.2 454.8 407.9 452.5 407.9 458.2C407.9 463.9 413.4 466 414.8 473.4C416.2 480.9 410.2 485.2 407.9 484.6C405.6 484 407 492.4 404.4 492.6C401.8 492.9 401.8 507 398.6 507.3C395.4 507.6 394.1 509.9 394.4 515.9C394.4 515.9 389.7 519.5 393.4 525C397 530.5 392.8 532.4 394.4 538.1C396 543.8 398.3 540.6 404 541.9C409.7 543.2 415 537.5 416.7 530.7C418.4 523.9 423.5 517.1 427.5 523.1C431.5 529.2 434.3 547 436.2 541.7C438.1 536.4 442.6 519.7 446.2 523.5C449.8 527.3 458.7 512.1 459.3 519.7C459.9 527.3 465.7 529.9 468.2 528.2C470.7 526.5 471.8 522.7 475.4 527.1C479 531.5 482.2 536.8 483.9 542.8C485.6 548.9 490.5 550 490.5 557C490.5 564 493.2 564.6 497.7 565C502.2 565.4 506.6 567.1 506.8 565.2C507 563.3 512.1 565.6 514.2 566.3C514.9 566.5 516.1 566.8 517.5 566.9C526.2 559.5 539.2 566 544.1 566.7C549.9 567.5 551.3 570.8 554.6 570.8C557.9 570.8 557.9 570.8 559.6 572.5C561.3 574.2 568.2 581.1 568.7 576.6C569.2 572.2 573.9 570.8 573.7 567C573.4 563.1 567.4 563.4 563.8 561.2C560.2 559 561.6 553.2 566.6 552.9C571.6 552.6 571.3 547.7 571.3 542.1C571.3 536.6 580.4 539.6 580.7 532.2C581 524.8 590.9 531.4 592 524.5C593.1 517.6 596.7 524.5 604.1 524.5C611.5 524.5 613.5 521.7 609.9 518.4C606.3 515.1 601.1 511.5 602.7 506.8C604.4 502.1 612.9 511.2 615.4 507.6C617.9 504 620.6 505.4 625.2 506.5C625.2 503.8 628.7 504 633.3 505.7C637.9 507.4 643.8 497.6 647.6 495.5C651.4 493.4 650.2 490.6 651.5 486.7C652.8 482.8 655.2 482.4 648.3 480C641.5 477.6 642.8 473.6 642.1 466.8C641.4 460 632.4 461.6 632.4 456.6C632.4 451.6 636.6 452.4 642.8 449.9C649 447.4 640.4 436.1 637.7 438.4C635 440.6 636.7 431.7 632.5 431.1C628.3 430.4 635.7 423.5 634.2 421.7C632.8 419.9 632.2 415.7 632.1 411.3C632 407 615.1 412.1 612.3 415.9C609.6 419.7 607.1 413.7 604.2 416.4C601.3 419.1 603.8 422 604.9 425.7C605.9 429.4 596.9 430.7 592.7 430.8C588.5 430.9 588 424.6 595.3 423.6C602.6 422.6 596.6 419.7 598.2 416.4C599.5 413.6 597.1 412.5 595.5 411C589.5 417 582.6 422.5 579.2 420.6Z" stroke="#005645" strokeWidth="2.1432"/>
<path d="M680.4 574.2C680.4 568.3 672.4 572.8 664.4 572.8C656.4 572.8 648.8 570 644.3 568.4C639.8 566.8 640.8 558.1 641 555.3C641.3 551.8 635.8 549.3 638 546.8C640.2 544.3 639.2 536 643.8 538.9C648.4 541.8 647 525.8 642.1 525.8C637.2 525.8 632.3 524.4 632.3 518.2C632.3 512 625.1 509.8 625.1 507.1C620.5 506 617.8 504.6 615.3 508.2C612.8 511.8 604.3 502.7 602.6 507.4C600.9 512.1 606.2 515.7 609.8 519C613.4 522.3 611.5 525.1 604 525.1C596.6 525.1 593 518.2 591.9 525.1C590.8 532 580.9 525.4 580.6 532.8C580.3 540.2 571.2 537.2 571.2 542.7C571.2 548.2 571.5 553.2 566.5 553.5C561.5 553.8 560.2 559.6 563.7 561.8C567.3 564 573.3 563.7 573.6 567.6C573.9 571.5 569.2 572.8 568.6 577.2C568.1 581.6 561.2 574.7 559.5 573.1C557.8 571.4 557.8 571.4 554.5 571.4C551.2 571.4 549.8 568.1 544 567.3C539.1 566.6 526.1 560.1 517.4 567.5C515.9 568.8 514.6 570.4 513.4 572.6C505.4 587.5 527.6 581.5 527.6 581.5C531.9 586.1 532.7 588.3 529.4 591.6C527.8 593.2 526.2 593.1 525 593.4C523.7 593.7 522.8 594.5 522.8 598.5C522.8 599.8 522.9 601.1 523 602.4C523.6 608 525.1 612 521.2 610.8C521.1 610.8 521.1 610.8 521 610.8C515.9 609 511.4 611 511.4 614.1C511.4 616.4 504.3 622.1 500.7 628.2C502.8 627.8 505.2 626.9 507.5 626.9C512.6 626.9 517.1 625.9 516.7 631.6C516.3 637.3 520 636.5 530 636.5C540 636.5 535.5 633.6 539.2 630.4C542.9 627.3 546.2 637.2 552.7 636.3C559.1 635.3 559.3 636.1 559.3 642C559.3 647.9 572 645.3 577.1 646.9C582.2 648.5 595.3 652.4 606.4 650.4C617.5 648.4 616.5 649 626.7 644.2C636.8 639.3 629 631.3 636.5 631.3C643.9 631.3 641.4 621.3 647.8 621.3C654.2 621.3 652.5 613.3 658.1 609.8C663.8 606.3 671 604.7 671 599.7C671 594.6 673.9 591.9 677.6 586C681.1 579.6 680.4 580 680.4 574.2Z" fill="white"/>
<path d="M680.4 574.2C680.4 568.3 672.4 572.8 664.4 572.8C656.4 572.8 648.8 570 644.3 568.4C639.8 566.8 640.8 558.1 641 555.3C641.3 551.8 635.8 549.3 638 546.8C640.2 544.3 639.2 536 643.8 538.9C648.4 541.8 647 525.8 642.1 525.8C637.2 525.8 632.3 524.4 632.3 518.2C632.3 512 625.1 509.8 625.1 507.1C620.5 506 617.8 504.6 615.3 508.2C612.8 511.8 604.3 502.7 602.6 507.4C600.9 512.1 606.2 515.7 609.8 519C613.4 522.3 611.5 525.1 604 525.1C596.6 525.1 593 518.2 591.9 525.1C590.8 532 580.9 525.4 580.6 532.8C580.3 540.2 571.2 537.2 571.2 542.7C571.2 548.2 571.5 553.2 566.5 553.5C561.5 553.8 560.2 559.6 563.7 561.8C567.3 564 573.3 563.7 573.6 567.6C573.9 571.5 569.2 572.8 568.6 577.2C568.1 581.6 561.2 574.7 559.5 573.1C557.8 571.4 557.8 571.4 554.5 571.4C551.2 571.4 549.8 568.1 544 567.3C539.1 566.6 526.1 560.1 517.4 567.5C515.9 568.8 514.6 570.4 513.4 572.6C505.4 587.5 527.6 581.5 527.6 581.5C531.9 586.1 532.7 588.3 529.4 591.6C527.8 593.2 526.2 593.1 525 593.4C523.7 593.7 522.8 594.5 522.8 598.5C522.8 599.8 522.9 601.1 523 602.4C523.6 608 525.1 612 521.2 610.8C521.1 610.8 521.1 610.8 521 610.8C515.9 609 511.4 611 511.4 614.1C511.4 616.4 504.3 622.1 500.7 628.2C502.8 627.8 505.2 626.9 507.5 626.9C512.6 626.9 517.1 625.9 516.7 631.6C516.3 637.3 520 636.5 530 636.5C540 636.5 535.5 633.6 539.2 630.4C542.9 627.3 546.2 637.2 552.7 636.3C559.1 635.3 559.3 636.1 559.3 642C559.3 647.9 572 645.3 577.1 646.9C582.2 648.5 595.3 652.4 606.4 650.4C617.5 648.4 616.5 649 626.7 644.2C636.8 639.3 629 631.3 636.5 631.3C643.9 631.3 641.4 621.3 647.8 621.3C654.2 621.3 652.5 613.3 658.1 609.8C663.8 606.3 671 604.7 671 599.7C671 594.6 673.9 591.9 677.6 586C681.1 579.6 680.4 580 680.4 574.2Z" stroke="#005645" strokeWidth="2.1432"/>
<path d="M388 411.7C375.4 412.7 373 417 367 413.2C361 409.3 346 418.8 345.2 413.7C344.5 408.6 343.7 404.3 336.3 404.3C328.8 404.3 333.4 394.2 331.2 392.2C329 390.3 323.9 378.4 321.1 373.3C318.2 368.2 315.3 374.3 312.2 374.8C309.1 375.3 303 377.7 303 371.9C303 366.1 298.4 360.5 294.5 359.6C290.6 358.6 288.5 354.8 284.8 359.6C281.2 364.4 270.8 363.5 263.3 362C255.8 360.5 250.5 368.5 242.3 369.5C234.1 370.5 251.2 386.4 251.5 399.7C251.7 413 254.2 411.5 257.1 414.7C260 417.9 252.5 420 245 417.6C237.5 415.2 239.4 418.8 237 415.4C235.2 412.8 230.8 418.1 225.9 421.3C231.3 422.4 226.6 427.2 221.9 428.3C216.9 429.5 205.4 420.7 208.3 426.6C211.2 432.6 219.5 431.6 225.5 431.6C231.5 431.6 232.6 434 232.6 441.4C232.6 448.8 228.8 451.9 225.9 445.9C223 439.9 215.9 443.8 216.1 445.9C216.3 448 222.5 455.7 222.5 459.5C222.5 463.3 224.6 465.2 229.2 467.4C233.7 469.5 235.2 471.9 230.9 475.3C226.6 478.6 225.4 479.6 225.4 501C225.4 522.4 222.3 527.2 224.9 530.1C227.1 532.5 229.7 536.3 228.8 538C228.6 538.3 228.3 538.6 227.8 538.7C224.7 539.4 220.9 547 219.5 568C218.1 589 206.9 622.6 199.7 624.7C192.6 626.8 196.6 633.5 198.3 634.2C200 634.9 198.8 641.1 203.1 638.3C207.4 635.4 210.5 640.9 209.1 646.6C207.7 652.3 211 658.3 215.1 653.7C219.2 649.2 217 655.6 226.3 659.4C235.6 663.2 246.3 664.6 249.2 671.3C251.8 677.3 258.4 672.7 266.5 670.3C266 667.6 265.8 665.7 266 665C267.6 660.5 273.7 655.6 274.7 651.1C275.8 646.6 283.5 639.3 283.5 632.3C283.5 625.4 280.7 616.1 273.5 616.3C266.3 616.5 271.6 613.2 271.8 605.5C272 597.8 271.1 592.2 275.9 592.2C280.7 592.2 283.4 583.3 286.3 587.1C289.2 591 291.1 584.7 297.1 586.1C303.1 587.6 312.8 580.1 315.9 582.5C319 584.9 324.3 573.8 327.5 573.6C330.6 573.4 333.3 568.5 333 564.7C332.8 560.8 337.8 566.6 337.8 560.8C337.8 555 333.9 547.8 337.8 547.8C341.7 547.8 342.1 537.7 347.2 537.4C352.3 537.2 358 526.1 358 520.5C358 515 361.9 514.2 366.9 515.2C372 516.2 377 521.2 381.8 520C386.6 518.8 394.3 515.9 394.3 515.9C394 509.9 395.3 507.5 398.5 507.3C401.7 507 401.7 492.9 404.3 492.6C406.9 492.3 405.5 484 407.8 484.6C410.1 485.2 416.1 480.9 414.7 473.4C413.3 465.9 407.8 463.9 407.8 458.2C407.8 452.5 418.1 454.7 418.1 443C418.1 431.2 416.6 434.7 411.6 425.7C407.1 417.7 400.7 414.8 400.4 411.6C397.5 411.5 393.4 411.3 388 411.7Z" fill="white"/>
<path d="M388 411.7C375.4 412.7 373 417 367 413.2C361 409.3 346 418.8 345.2 413.7C344.5 408.6 343.7 404.3 336.3 404.3C328.8 404.3 333.4 394.2 331.2 392.2C329 390.3 323.9 378.4 321.1 373.3C318.2 368.2 315.3 374.3 312.2 374.8C309.1 375.3 303 377.7 303 371.9C303 366.1 298.4 360.5 294.5 359.6C290.6 358.6 288.5 354.8 284.8 359.6C281.2 364.4 270.8 363.5 263.3 362C255.8 360.5 250.5 368.5 242.3 369.5C234.1 370.5 251.2 386.4 251.5 399.7C251.7 413 254.2 411.5 257.1 414.7C260 417.9 252.5 420 245 417.6C237.5 415.2 239.4 418.8 237 415.4C235.2 412.8 230.8 418.1 225.9 421.3C231.3 422.4 226.6 427.2 221.9 428.3C216.9 429.5 205.4 420.7 208.3 426.6C211.2 432.6 219.5 431.6 225.5 431.6C231.5 431.6 232.6 434 232.6 441.4C232.6 448.8 228.8 451.9 225.9 445.9C223 439.9 215.9 443.8 216.1 445.9C216.3 448 222.5 455.7 222.5 459.5C222.5 463.3 224.6 465.2 229.2 467.4C233.7 469.5 235.2 471.9 230.9 475.3C226.6 478.6 225.4 479.6 225.4 501C225.4 522.4 222.3 527.2 224.9 530.1C227.1 532.5 229.7 536.3 228.8 538C228.6 538.3 228.3 538.6 227.8 538.7C224.7 539.4 220.9 547 219.5 568C218.1 589 206.9 622.6 199.7 624.7C192.6 626.8 196.6 633.5 198.3 634.2C200 634.9 198.8 641.1 203.1 638.3C207.4 635.4 210.5 640.9 209.1 646.6C207.7 652.3 211 658.3 215.1 653.7C219.2 649.2 217 655.6 226.3 659.4C235.6 663.2 246.3 664.6 249.2 671.3C251.8 677.3 258.4 672.7 266.5 670.3C266 667.6 265.8 665.7 266 665C267.6 660.5 273.7 655.6 274.7 651.1C275.8 646.6 283.5 639.3 283.5 632.3C283.5 625.4 280.7 616.1 273.5 616.3C266.3 616.5 271.6 613.2 271.8 605.5C272 597.8 271.1 592.2 275.9 592.2C280.7 592.2 283.4 583.3 286.3 587.1C289.2 591 291.1 584.7 297.1 586.1C303.1 587.6 312.8 580.1 315.9 582.5C319 584.9 324.3 573.8 327.5 573.6C330.6 573.4 333.3 568.5 333 564.7C332.8 560.8 337.8 566.6 337.8 560.8C337.8 555 333.9 547.8 337.8 547.8C341.7 547.8 342.1 537.7 347.2 537.4C352.3 537.2 358 526.1 358 520.5C358 515 361.9 514.2 366.9 515.2C372 516.2 377 521.2 381.8 520C386.6 518.8 394.3 515.9 394.3 515.9C394 509.9 395.3 507.5 398.5 507.3C401.7 507 401.7 492.9 404.3 492.6C406.9 492.3 405.5 484 407.8 484.6C410.1 485.2 416.1 480.9 414.7 473.4C413.3 465.9 407.8 463.9 407.8 458.2C407.8 452.5 418.1 454.7 418.1 443C418.1 431.2 416.6 434.7 411.6 425.7C407.1 417.7 400.7 414.8 400.4 411.6C397.5 411.5 393.4 411.3 388 411.7Z" stroke="#005645" strokeWidth="2.1432"/>
<mask id="mask0_126_220" style="mask-type:luminance" maskUnits="userSpaceOnUse" x="23" y="494" width="126" height="157">
<path d="M148.7 494H23.7998V650.9H148.7V494Z" fill="white"/>
</mask>
<g mask="url(#mask0_126_220)">
<path d="M38.7997 576.2C37.6997 575 36.5997 573.8 35.3997 572.7C33.4997 570.9 32.2997 568.8 32.2997 566.1C32.2997 564.6 31.7997 563.2 30.8997 562.1C29.8997 560.9 29.1997 559.5 28.7997 558C28.3997 556.5 28.2997 555 28.4997 553.4C28.7997 550.2 28.6997 546.9 28.7997 543.7C28.7997 542 29.1997 540.4 29.7997 538.8C30.3997 537.4 30.5997 535.9 30.4997 534.3C30.3997 531.9 30.2997 529.5 30.3997 527.2C30.3997 526.1 30.5997 525 30.9997 523.9C31.4997 522.9 32.0997 521.9 32.9997 521.2C34.1997 520.1 34.8997 518.6 35.5997 517.1C37.0997 514.3 38.8997 512 41.6997 510.4C42.5997 509.9 43.2997 509.2 43.7997 508.3C45.5997 505.2 47.0997 501.9 48.0997 498.5C48.3997 497.5 48.3997 496.5 48.2997 495.6C48.0997 494.6 48.2997 494.3 49.3997 494.2C51.9997 494 54.6997 493.5 57.2997 494.1C58.6997 494.4 59.9997 494.8 61.0997 495.8C66.1997 500.8 72.5997 503.4 79.2997 505.2C82.8997 506.2 86.5997 507.3 90.2997 507.9C90.9997 508 91.6997 508.2 92.2997 508.6C95.8997 511.3 99.9997 513.1 103.1 516.7C105.7 519.7 108.8 522.4 112.8 523.8C113.4 524 113.9 524.3 114.2 524.8C116 527.9 118.4 530.7 118.2 534.6C118.2 535.2 118.1 536.1 119 536.2C119.8 536.3 120.3 535.7 120.6 535C121.6 533.1 122.1 532.8 124 534.1C127.2 536.1 130 538.6 132.3 541.5C134.6 544.5 135.9 548.1 133.8 551.9C133.6 552.3 133.4 552.7 133.5 553.2C136.4 553.1 137.4 551.8 136.6 549.1C136.1 547.3 136.1 545.4 136.6 543.7C136.7 543.3 136.9 543 137.2 542.8C137.5 542.6 137.9 542.5 138.3 542.5C139.2 542.5 140.1 542.8 140.8 543.3C141.5 543.8 142 544.6 142.2 545.5C143.1 548.5 143.9 551.6 144.7 554.6C145 556 145.8 557.4 146.9 558.4C148.8 560.1 149.2 562.1 148.2 564.3C146.7 567.7 145.1 571.1 142.2 573.6C140.4 575.2 139.1 577.3 138.6 579.6C138.2 581.5 137.2 582.8 135.2 583.4C133.7 583.8 133 585.1 132.4 586.4C131.5 588.4 130.7 590.4 130 592.4C128.6 596.4 126.4 599.8 122.6 602C121.2 602.9 120 604 119 605.4C118.2 606.3 117.8 607.5 117.8 608.6C117.9 610 117.4 611.3 116.6 612.4C115.5 613.8 114.8 615.5 114.6 617.3C114.5 618.3 114.3 619.2 113.8 620C113.3 620.8 112.6 621.5 111.8 622C109.1 623.7 108.1 626.2 108.1 629.2C108.1 629.5 108.1 629.7 108.1 630C108.4 632.8 107.6 634.9 105.2 636.9C102.1 639.5 99.6997 642.9 96.5997 645.6C95.1997 646.8 93.7997 648.1 92.0997 649C91.4997 649.3 90.8997 649.6 90.2997 648.9C89.7997 648.4 89.0997 648.4 88.3997 648.4C86.1997 648.4 83.8997 648.8 81.7997 649.4C80.0997 649.9 79.8997 649.7 79.5997 648C79.4997 647.6 79.3997 647.1 79.2997 646.7C78.3997 642.8 75.3997 641.3 71.6997 643C70.6997 643.5 69.7997 644.2 68.8997 644.9C65.4997 647.7 62.6997 647.4 59.8997 643.9C59.6997 643.6 59.4997 643.3 59.2997 643C58.2997 641.5 57.9997 641.4 56.3997 642.2C52.6997 644.2 49.0997 646.5 45.7997 649.1C43.5997 650.9 41.3997 651.3 38.7997 650.2C37.1997 649.5 35.4997 649.1 33.7997 649.1C32.7997 649 31.8997 648.7 31.1997 648.1C30.5997 647.7 29.9997 647.4 29.2997 647.2C28.5997 647 27.8997 647 27.1997 647.2C26.0997 647.4 24.7997 647.7 24.0997 646.5C23.7997 645.9 23.6997 645.3 23.6997 644.7C23.6997 644.1 23.8997 643.5 24.2997 642.9C25.7997 640.3 27.5997 637.9 29.6997 635.7C32.5997 632.7 34.4997 629.1 35.5997 625.1C36.6997 621.4 38.0997 617.7 38.6997 613.8C38.9997 611.9 39.9997 610.1 40.8997 608.3C42.6997 604.8 44.0997 601.1 46.3997 597.9C48.1997 595.4 48.6997 592.3 49.0997 589.3C49.2997 588.1 48.9997 586.9 48.3997 585.9C47.9997 585.2 47.4997 585 46.8997 585.7C46.2997 586.3 45.9997 586.9 45.4997 587.5C45.2997 587.7 45.2997 588 44.9997 588C44.6997 588 44.4997 587.6 44.4997 587.3C44.1997 586.2 43.9997 585 43.6997 583.9C43.5997 583.6 43.5997 583.3 43.5997 583.1C43.5997 582.8 43.7997 582.5 43.9997 582.3C44.9997 580.8 44.4997 579.8 43.8997 578.3C43.1997 576.8 41.5997 576.4 40.8997 575C40.6997 574.5 40.2997 574.9 40.0997 575.2C39.9997 576 39.5997 576.5 38.7997 576.2Z" fill="white" stroke="#005645" strokeWidth="2.1432"/>
</g>
<path d="M171.3 331.1C174 326 180.6 333.2 180.6 325C180.6 316.8 193.1 319.9 197.9 315.7C202.7 311.4 214.1 303.5 220.3 305.6C226.4 307.7 230.9 301.9 231.7 296C232.5 290.1 234.9 286.4 233 276C231.1 265.6 230.6 250.7 224.2 254.4C218.1 257.9 210.7 268.9 207.9 245.9H207.8C202.3 246.4 194.2 248.5 194 242.5C193.9 236.5 188.2 240.9 181.7 245.9C175.1 250.9 174.8 246.4 172.6 242.5C170.5 238.6 169.4 242.5 163.6 245.1C157.7 247.7 160.6 252 155.3 251.9C153 251.8 146.9 250.7 146.9 247.4C146.9 244.1 145.9 243.5 143 240.8C140.1 238.2 137.4 235.3 136.3 231C135.3 226.7 133.4 222.2 129.2 225.2C128.1 226 123.8 226 120.9 229.5C118 233 116.4 229.6 112.1 229.5C107.8 229.4 108.9 236.2 109.1 238.9C109.2 241.6 105.3 243.1 100.5 239.2C95.6 235.3 95.5 238.5 94.5 243.9C93.5 249.3 90.2 240.6 87.9 236.4C85.7 232.2 79.3 239.6 75.1 238.5C70.9 237.5 70.9 239.9 64.9 239.9C58.9 239.9 60.4 243.6 54.4 244.8C48.4 246 45.5 246.9 45.1 253.4C44.7 260 46.6 266.4 50.1 264.2C53.6 262 60.8 262.5 66 262.2C71.2 261.9 74.5 268.6 72.2 271.1C69.8 273.6 64.6 267 59.5 265.5C54.4 263.9 57 269.8 57.1 274.8C57.2 279.8 58.7 279.3 62.2 276.9C67.3 273.3 72.5 276.2 73.1 277.4C74.5 280.3 73.2 283.3 68 283.3C62.8 283.3 55.4 285 51.1 287.9C46.8 290.8 58.3 292.8 63.2 295C68.1 297.2 66.6 301.9 64.5 307.5C62.4 313 68.7 309.1 75.1 309.1C81.5 309.1 77.1 302.9 83.2 304C89.4 305 89.5 301.3 93.4 307.5C97.3 313.7 104.4 307.4 108.9 313C113.4 318.6 117.8 310.4 124 322.2C130.2 334 131.6 325.6 137.4 324.9C143.2 324.2 142.8 324 143 328.1C143.3 332.2 149.7 327.7 155.1 326.5C160.6 325.3 163 331.5 162 335.1C162 335.2 161.9 335.3 161.9 335.4C166.6 335.1 169.7 334.2 171.3 331.1Z" fill="white"/>
<path d="M171.3 331.1C174 326 180.6 333.2 180.6 325C180.6 316.8 193.1 319.9 197.9 315.7C202.7 311.4 214.1 303.5 220.3 305.6C226.4 307.7 230.9 301.9 231.7 296C232.5 290.1 234.9 286.4 233 276C231.1 265.6 230.6 250.7 224.2 254.4C218.1 257.9 210.7 268.9 207.9 245.9H207.8C202.3 246.4 194.2 248.5 194 242.5C193.9 236.5 188.2 240.9 181.7 245.9C175.1 250.9 174.8 246.4 172.6 242.5C170.5 238.6 169.4 242.5 163.6 245.1C157.7 247.7 160.6 252 155.3 251.9C153 251.8 146.9 250.7 146.9 247.4C146.9 244.1 145.9 243.5 143 240.8C140.1 238.2 137.4 235.3 136.3 231C135.3 226.7 133.4 222.2 129.2 225.2C128.1 226 123.8 226 120.9 229.5C118 233 116.4 229.6 112.1 229.5C107.8 229.4 108.9 236.2 109.1 238.9C109.2 241.6 105.3 243.1 100.5 239.2C95.6 235.3 95.5 238.5 94.5 243.9C93.5 249.3 90.2 240.6 87.9 236.4C85.7 232.2 79.3 239.6 75.1 238.5C70.9 237.5 70.9 239.9 64.9 239.9C58.9 239.9 60.4 243.6 54.4 244.8C48.4 246 45.5 246.9 45.1 253.4C44.7 260 46.6 266.4 50.1 264.2C53.6 262 60.8 262.5 66 262.2C71.2 261.9 74.5 268.6 72.2 271.1C69.8 273.6 64.6 267 59.5 265.5C54.4 263.9 57 269.8 57.1 274.8C57.2 279.8 58.7 279.3 62.2 276.9C67.3 273.3 72.5 276.2 73.1 277.4C74.5 280.3 73.2 283.3 68 283.3C62.8 283.3 55.4 285 51.1 287.9C46.8 290.8 58.3 292.8 63.2 295C68.1 297.2 66.6 301.9 64.5 307.5C62.4 313 68.7 309.1 75.1 309.1C81.5 309.1 77.1 302.9 83.2 304C89.4 305 89.5 301.3 93.4 307.5C97.3 313.7 104.4 307.4 108.9 313C113.4 318.6 117.8 310.4 124 322.2C130.2 334 131.6 325.6 137.4 324.9C143.2 324.2 142.8 324 143 328.1C143.3 332.2 149.7 327.7 155.1 326.5C160.6 325.3 163 331.5 162 335.1C162 335.2 161.9 335.3 161.9 335.4C166.6 335.1 169.7 334.2 171.3 331.1Z" stroke="#005645" strokeWidth="2.1432"/>
<path d="M234.9 257.6C240.4 257.6 243.1 254.6 246.7 257.4C250.3 260.2 250.7 257.5 254.5 258.5C258.2 259.5 263.6 255.5 266.5 255.2C269.4 254.9 272 259.2 273.1 256C274.2 252.8 278.4 248.2 279.1 253.9C279.7 259.6 286.5 260.8 286.9 264.6C287.2 268.3 307.1 250.7 307.3 260.2C307.5 269.7 313.8 271.5 319.1 273.6C324.4 275.7 330.6 286 330.6 277.3C330.6 268.6 333.3 269.7 334.8 262.1C336.3 254.5 325 242.1 333 239.8C341.1 237.5 355 247.4 356.4 238.2C357.9 229 363.2 224.3 363.2 224.3C363.2 224.3 359.8 213.5 364.7 212.7C369.6 211.9 367.1 206.1 373.3 198C379.4 189.9 378.6 189.9 376.5 180.9C374.4 171.8 369.4 172.5 374.1 165.4C378.8 158.3 375.4 148.9 368 145.2C364.6 143.5 361.4 140.3 358.9 137.3C358.5 137.7 358.1 138 357.7 138C354.3 138 333.4 153.2 325.7 153.2C318 153.2 308.4 157.5 302.2 162.8C296 168 294.1 169.5 292.5 176.4C290.9 183.3 298.7 181.6 303.1 182.4C307.6 183.2 305.7 186.1 299.3 186.1C292.9 186.1 286.6 199.7 278.1 197.1C269.6 194.5 255.3 192.1 249.5 190.3C243.7 188.5 235.2 187.6 231 192.5C226.8 197.5 226.9 183.3 223.4 178.6C219.9 173.9 226.7 173.4 226 168C225.3 162.6 216.6 165 210.9 166.8C205.3 168.6 203 162.7 194.6 161.7C186.2 160.7 196.8 170.9 194.9 175.6C192.9 180.3 198.2 179.4 198.2 185.2C198.2 191 204 195.7 207.5 199.1C211 202.5 207.6 215.4 209.9 218.9C212.1 222.4 209.5 220.1 209.5 230.7C209.5 241.3 210.9 239.1 215.8 242.6C220.6 246.1 213.7 245.2 208.2 245.7C211 268.6 218.5 257.7 224.5 254.2C227.1 252.7 228.7 254.3 229.9 257.4C231.1 257.4 232.8 257.6 234.9 257.6Z" fill="white"/>
<path d="M234.9 257.6C240.4 257.6 243.1 254.6 246.7 257.4C250.3 260.2 250.7 257.5 254.5 258.5C258.2 259.5 263.6 255.5 266.5 255.2C269.4 254.9 272 259.2 273.1 256C274.2 252.8 278.4 248.2 279.1 253.9C279.7 259.6 286.5 260.8 286.9 264.6C287.2 268.3 307.1 250.7 307.3 260.2C307.5 269.7 313.8 271.5 319.1 273.6C324.4 275.7 330.6 286 330.6 277.3C330.6 268.6 333.3 269.7 334.8 262.1C336.3 254.5 325 242.1 333 239.8C341.1 237.5 355 247.4 356.4 238.2C357.9 229 363.2 224.3 363.2 224.3C363.2 224.3 359.8 213.5 364.7 212.7C369.6 211.9 367.1 206.1 373.3 198C379.4 189.9 378.6 189.9 376.5 180.9C374.4 171.8 369.4 172.5 374.1 165.4C378.8 158.3 375.4 148.9 368 145.2C364.6 143.5 361.4 140.3 358.9 137.3C358.5 137.7 358.1 138 357.7 138C354.3 138 333.4 153.2 325.7 153.2C318 153.2 308.4 157.5 302.2 162.8C296 168 294.1 169.5 292.5 176.4C290.9 183.3 298.7 181.6 303.1 182.4C307.6 183.2 305.7 186.1 299.3 186.1C292.9 186.1 286.6 199.7 278.1 197.1C269.6 194.5 255.3 192.1 249.5 190.3C243.7 188.5 235.2 187.6 231 192.5C226.8 197.5 226.9 183.3 223.4 178.6C219.9 173.9 226.7 173.4 226 168C225.3 162.6 216.6 165 210.9 166.8C205.3 168.6 203 162.7 194.6 161.7C186.2 160.7 196.8 170.9 194.9 175.6C192.9 180.3 198.2 179.4 198.2 185.2C198.2 191 204 195.7 207.5 199.1C211 202.5 207.6 215.4 209.9 218.9C212.1 222.4 209.5 220.1 209.5 230.7C209.5 241.3 210.9 239.1 215.8 242.6C220.6 246.1 213.7 245.2 208.2 245.7C211 268.6 218.5 257.7 224.5 254.2C227.1 252.7 228.7 254.3 229.9 257.4C231.1 257.4 232.8 257.6 234.9 257.6Z" stroke="#005645" strokeWidth="2.1432"/>
<path d="M296.3 330.3C295.3 321.4 301.3 326.6 306.8 328.7C312.3 330.8 318.1 325.3 322.5 320.1C326.9 314.9 334.6 309.4 332.9 302.3C331.3 295.2 328 294.2 331.4 289.5C333.9 286.1 333.3 284.3 330.1 279.6C328.9 283.8 323.6 275.5 318.9 273.6C313.6 271.5 307.3 269.7 307.1 260.2C306.9 250.7 287.1 268.3 286.7 264.6C286.4 260.9 279.6 259.6 278.9 253.9C278.3 248.2 274 252.8 272.9 256C271.8 259.2 269.2 254.9 266.3 255.2C263.4 255.5 258.1 259.6 254.3 258.5C250.6 257.5 250.1 260.2 246.5 257.4C242.9 254.6 240.2 257.6 234.7 257.6C232.6 257.6 230.9 257.4 229.4 257.4C231.1 261.9 231.7 269.6 232.8 275.7C234.7 286.1 232.3 289.8 231.5 295.7C230.7 301.6 226.2 307.4 220.1 305.3C214 303.2 202.5 311.2 197.7 315.4C192.9 319.7 180.4 316.5 180.4 324.7C180.4 332.9 173.7 325.8 171.1 330.8C169.5 333.9 166.4 334.8 161.7 335.3C160.6 338.8 155.7 343.4 158.5 344.6C161.4 345.8 169.5 347.9 172.3 347.2C175.2 346.5 177.2 346 177.1 351.7C177 355.5 179 358.9 182.2 361.1C184.4 362.6 185.4 365.3 184 369C181.9 374.7 177.6 370.2 172.8 365.7C168 361.2 170.7 371.4 174 374C177.3 376.6 173.8 379.2 180.2 384.3C186.6 389.3 190.9 401.9 195.4 407.9C199.9 413.9 210.2 410.8 213.6 414.3C216.9 417.9 217.9 420.5 224.8 421.2C225.2 421.2 225.5 421.3 225.8 421.4C230.7 418.2 235.1 413 236.9 415.5C239.3 418.9 237.4 415.3 244.9 417.7C252.4 420.1 259.9 418 257 414.8C254.1 411.6 251.7 413.1 251.4 399.8C251.2 386.5 234 370.5 242.2 369.6C250.4 368.6 255.7 360.7 263.2 362.1C270.7 363.6 281.1 364.5 284.7 359.7C287 356.6 288.7 357.1 290.7 358.1C293.7 348.1 297 335.5 296.3 330.3Z" fill="white"/>
<path d="M296.3 330.3C295.3 321.4 301.3 326.6 306.8 328.7C312.3 330.8 318.1 325.3 322.5 320.1C326.9 314.9 334.6 309.4 332.9 302.3C331.3 295.2 328 294.2 331.4 289.5C333.9 286.1 333.3 284.3 330.1 279.6C328.9 283.8 323.6 275.5 318.9 273.6C313.6 271.5 307.3 269.7 307.1 260.2C306.9 250.7 287.1 268.3 286.7 264.6C286.4 260.9 279.6 259.6 278.9 253.9C278.3 248.2 274 252.8 272.9 256C271.8 259.2 269.2 254.9 266.3 255.2C263.4 255.5 258.1 259.6 254.3 258.5C250.6 257.5 250.1 260.2 246.5 257.4C242.9 254.6 240.2 257.6 234.7 257.6C232.6 257.6 230.9 257.4 229.4 257.4C231.1 261.9 231.7 269.6 232.8 275.7C234.7 286.1 232.3 289.8 231.5 295.7C230.7 301.6 226.2 307.4 220.1 305.3C214 303.2 202.5 311.2 197.7 315.4C192.9 319.7 180.4 316.5 180.4 324.7C180.4 332.9 173.7 325.8 171.1 330.8C169.5 333.9 166.4 334.8 161.7 335.3C160.6 338.8 155.7 343.4 158.5 344.6C161.4 345.8 169.5 347.9 172.3 347.2C175.2 346.5 177.2 346 177.1 351.7C177 355.5 179 358.9 182.2 361.1C184.4 362.6 185.4 365.3 184 369C181.9 374.7 177.6 370.2 172.8 365.7C168 361.2 170.7 371.4 174 374C177.3 376.6 173.8 379.2 180.2 384.3C186.6 389.3 190.9 401.9 195.4 407.9C199.9 413.9 210.2 410.8 213.6 414.3C216.9 417.9 217.9 420.5 224.8 421.2C225.2 421.2 225.5 421.3 225.8 421.4C230.7 418.2 235.1 413 236.9 415.5C239.3 418.9 237.4 415.3 244.9 417.7C252.4 420.1 259.9 418 257 414.8C254.1 411.6 251.7 413.1 251.4 399.8C251.2 386.5 234 370.5 242.2 369.6C250.4 368.6 255.7 360.7 263.2 362.1C270.7 363.6 281.1 364.5 284.7 359.7C287 356.6 288.7 357.1 290.7 358.1C293.7 348.1 297 335.5 296.3 330.3Z" stroke="#005645" strokeWidth="2.1432"/>
<path d="M471.3 205.8C470.1 204.6 470.1 194.2 475.2 194.5C480.3 194.7 478.9 190.1 484.9 190.1C490.9 190.1 491.1 187.8 492.5 183.4C493.9 179 490.4 177.6 492.5 173.9C494.6 170.2 497.8 164.2 497.6 154.5C497.5 148.6 497.8 147.5 499.3 145.8C497.8 144.9 496.7 144.1 496.2 144C494.5 143.5 494.4 141 498.4 138.1C502.5 135.2 499 131.8 497 130.6C492.2 127.7 497 125 499.1 122.2C501.2 119.5 491.9 118 489.9 116C487.9 114 483.2 118 480.3 114.4C477.4 110.9 476.1 111.9 472.3 114.2C468.9 116.2 469.2 109.1 467.2 105.3C465.2 101.5 451.5 104 448.1 103.1C444.7 102.2 448.1 96.4998 448.1 91.2998C448.1 86.0998 443.4 81.0998 438.4 82.8998C433.4 84.6998 431.5 88.2998 427.6 86.2998C423.8 84.2998 430.5 77.6998 427.6 75.4998C425.6 73.9998 420 76.1998 417.6 70.9998C415 65.2998 414.7 64.0998 413.4 59.8998C412.1 55.6998 409.7 60.8998 404.5 60.8998C399.3 60.8998 385.1 66.4998 380 68.5998C374.9 70.6998 367.3 72.0998 367.3 77.0998C367.3 82.0998 366.5 90.0998 366.5 97.1998C366.5 104.3 368.9 110 367 110.6C365.2 111.1 364.8 117.9 368.7 121.6C372.6 125.3 371.2 125.9 366.1 125.4C361.7 124.9 360.9 134.5 358.6 137.2C361.1 140.2 364.3 143.4 367.7 145.1C375.1 148.8 378.5 158.2 373.8 165.3C369.1 172.4 374.1 171.8 376.2 180.8C378.3 189.9 379.1 189.9 373 197.9C371.8 199.5 370.9 201.1 370.2 202.5C380.3 206.3 397.4 205.7 406.3 209C418.6 213.6 425 213.7 438.1 211.7C451.1 209.7 446.8 225.2 455.8 226.2C458.7 226.5 460.1 227.9 460.7 229.7C468.2 220.8 468.8 216.2 469.2 211.8C469.7 206.7 472.5 206.9 471.3 205.8Z" fill="white"/>
<path d="M471.3 205.8C470.1 204.6 470.1 194.2 475.2 194.5C480.3 194.7 478.9 190.1 484.9 190.1C490.9 190.1 491.1 187.8 492.5 183.4C493.9 179 490.4 177.6 492.5 173.9C494.6 170.2 497.8 164.2 497.6 154.5C497.5 148.6 497.8 147.5 499.3 145.8C497.8 144.9 496.7 144.1 496.2 144C494.5 143.5 494.4 141 498.4 138.1C502.5 135.2 499 131.8 497 130.6C492.2 127.7 497 125 499.1 122.2C501.2 119.5 491.9 118 489.9 116C487.9 114 483.2 118 480.3 114.4C477.4 110.9 476.1 111.9 472.3 114.2C468.9 116.2 469.2 109.1 467.2 105.3C465.2 101.5 451.5 104 448.1 103.1C444.7 102.2 448.1 96.4998 448.1 91.2998C448.1 86.0998 443.4 81.0998 438.4 82.8998C433.4 84.6998 431.5 88.2998 427.6 86.2998C423.8 84.2998 430.5 77.6998 427.6 75.4998C425.6 73.9998 420 76.1998 417.6 70.9998C415 65.2998 414.7 64.0998 413.4 59.8998C412.1 55.6998 409.7 60.8998 404.5 60.8998C399.3 60.8998 385.1 66.4998 380 68.5998C374.9 70.6998 367.3 72.0998 367.3 77.0998C367.3 82.0998 366.5 90.0998 366.5 97.1998C366.5 104.3 368.9 110 367 110.6C365.2 111.1 364.8 117.9 368.7 121.6C372.6 125.3 371.2 125.9 366.1 125.4C361.7 124.9 360.9 134.5 358.6 137.2C361.1 140.2 364.3 143.4 367.7 145.1C375.1 148.8 378.5 158.2 373.8 165.3C369.1 172.4 374.1 171.8 376.2 180.8C378.3 189.9 379.1 189.9 373 197.9C371.8 199.5 370.9 201.1 370.2 202.5C380.3 206.3 397.4 205.7 406.3 209C418.6 213.6 425 213.7 438.1 211.7C451.1 209.7 446.8 225.2 455.8 226.2C458.7 226.5 460.1 227.9 460.7 229.7C468.2 220.8 468.8 216.2 469.2 211.8C469.7 206.7 472.5 206.9 471.3 205.8Z" stroke="#005645" strokeWidth="2.1432"/>
<path d="M464.1 243.4C463.9 243.2 463.7 243 463.6 242.7C463.6 242.6 463.5 242.6 463.5 242.5C463.4 242.3 463.3 242.2 463.2 242C463.2 241.9 463.1 241.9 463.1 241.8C463 241.6 462.9 241.3 462.7 241.1V241C462.6 240.8 462.5 240.6 462.5 240.3C462.5 240.2 462.4 240.1 462.4 240C462.4 239.8 462.3 239.7 462.3 239.5C462.3 239.4 462.3 239.3 462.2 239.2C462.1 239 462.1 238.7 462 238.4C462 238.3 462 238.2 461.9 238C461.9 237.9 461.9 237.7 461.8 237.6C461.8 237.4 461.8 237.3 461.7 237.1C461.7 237 461.7 236.9 461.7 236.8C461.4 234.2 461.5 231.6 460.8 229.6C460.1 227.7 458.8 226.4 455.9 226.1C446.9 225.1 451.2 209.6 438.2 211.6C425.2 213.6 418.7 213.5 406.4 208.9C397.5 205.6 380.4 206.3 370.3 202.4C367.6 208.1 368.4 211.9 364.5 212.5C360.7 213.1 362 219.9 362.7 222.8C366.2 229 367.3 231.6 367.1 236.8C366.9 244.5 371.3 249.8 374.6 251C377.8 252.3 376.8 262 380.1 262C383.3 262 382.1 273.3 386.1 272.8C390.1 272.3 387.6 269.8 401.4 271.6C415.2 273.3 402.9 287.6 410.1 287.1C417.3 286.6 427.6 287.8 431.3 283.4C435 278.9 439 278.2 439 270.9C439 263.6 444 268.2 450.8 267.7C455 267.4 456.5 268 456.9 266.4C456.9 266.3 456.9 266.2 457 266.1C457 266.1 457 266 457 265.9C457 265.8 457 265.6 457 265.5C457 265.4 457 265.4 457 265.3C457 264.8 457 264.2 457 263.4C457 263.3 457 263.2 457 263.1C457 262.9 457 262.6 457 262.3C457 262.2 457 262 457 261.8C457 261.2 457 260.5 456.9 259.7C456.9 250.2 469.4 249 464.1 243.4Z" fill="white"/>
<path d="M464.1 243.4C463.9 243.2 463.7 243 463.6 242.7C463.6 242.6 463.5 242.6 463.5 242.5C463.4 242.3 463.3 242.2 463.2 242C463.2 241.9 463.1 241.9 463.1 241.8C463 241.6 462.9 241.3 462.7 241.1V241C462.6 240.8 462.5 240.6 462.5 240.3C462.5 240.2 462.4 240.1 462.4 240C462.4 239.8 462.3 239.7 462.3 239.5C462.3 239.4 462.3 239.3 462.2 239.2C462.1 239 462.1 238.7 462 238.4C462 238.3 462 238.2 461.9 238C461.9 237.9 461.9 237.7 461.8 237.6C461.8 237.4 461.8 237.3 461.7 237.1C461.7 237 461.7 236.9 461.7 236.8C461.4 234.2 461.5 231.6 460.8 229.6C460.1 227.7 458.8 226.4 455.9 226.1C446.9 225.1 451.2 209.6 438.2 211.6C425.2 213.6 418.7 213.5 406.4 208.9C397.5 205.6 380.4 206.3 370.3 202.4C367.6 208.1 368.4 211.9 364.5 212.5C360.7 213.1 362 219.9 362.7 222.8C366.2 229 367.3 231.6 367.1 236.8C366.9 244.5 371.3 249.8 374.6 251C377.8 252.3 376.8 262 380.1 262C383.3 262 382.1 273.3 386.1 272.8C390.1 272.3 387.6 269.8 401.4 271.6C415.2 273.3 402.9 287.6 410.1 287.1C417.3 286.6 427.6 287.8 431.3 283.4C435 278.9 439 278.2 439 270.9C439 263.6 444 268.2 450.8 267.7C455 267.4 456.5 268 456.9 266.4C456.9 266.3 456.9 266.2 457 266.1C457 266.1 457 266 457 265.9C457 265.8 457 265.6 457 265.5C457 265.4 457 265.4 457 265.3C457 264.8 457 264.2 457 263.4C457 263.3 457 263.2 457 263.1C457 262.9 457 262.6 457 262.3C457 262.2 457 262 457 261.8C457 261.2 457 260.5 456.9 259.7C456.9 250.2 469.4 249 464.1 243.4Z" stroke="#005645" strokeWidth="2.1432"/>
<path d="M694.2 216.9C690.5 215.6 676.2 211.9 671.3 211.1C666.3 210.3 662.7 204.3 658.7 203C654.7 201.7 651.8 208.4 646.9 206.7C642 205 638.6 209.6 637.6 203.5C636.6 197.5 629.7 201.3 627.2 204.3C624.7 207.3 623.8 200.2 620.6 195.8C617.4 191.3 617.6 186.1 614.3 183.1C611 180.1 605.9 183.9 603.3 179.8C600.7 175.7 597.3 178.2 593.2 181.1C589.1 184 587.2 183.2 583.6 180.3C580.1 177.4 566.3 176.2 561.8 179.1C557.3 182 557.1 173.2 555.4 169.1C553.7 165 544.9 166.2 541.6 161.2C538.3 156.2 534.9 155.4 533.2 157C531.5 158.6 529.4 160 529.4 155.6C529.4 151.1 533.1 147.9 529.9 146.2C526.7 144.5 528.1 144.9 531.2 136.9C534.4 128.9 529.9 130.5 526.9 131.4C523.9 132.3 521.9 137.8 521.9 144.1C521.9 150.4 516.5 144.5 511.8 148.4C508.4 151.2 502.7 148 499.1 145.8C497.7 147.5 497.3 148.6 497.4 154.5C497.6 164.2 494.4 170.2 492.3 173.9C490.2 177.6 493.7 179 492.3 183.4C490.9 187.8 490.7 190.1 484.7 190.1C478.7 190.1 480.1 194.7 475 194.5C469.9 194.3 469.9 204.7 471.1 205.8C472.3 207 469.5 206.7 469 211.8C468.6 216.2 468 220.8 460.5 229.7C461.9 233.5 460.3 239.5 463.8 243.4C469 249.1 456.6 250.2 456.8 259.7C456.9 263.4 457 265.3 456.7 266.3C459.2 269.2 463.1 269.5 466.2 270.5C471.5 272.1 464.1 284.1 474.8 284.8C485.4 285.5 478 301.2 493.8 298.7C509.5 296.2 514.6 286.2 525 294.3C535.4 302.4 526.2 315.8 537.9 319C549.7 322.2 559.2 320.8 563.1 319C567 317.2 574.4 320.6 575.1 310.7C575.8 300.8 586 291.7 593.4 292.7C600.8 293.6 592.5 301.9 603.1 298.2C613.7 294.5 611.2 307.7 616.5 301.2C621.8 294.7 625.7 301.4 633.1 305.8C640.5 310.2 637.3 321.8 641.2 322.4C643.1 322.7 644.5 326.2 645.4 329.8C646.5 330.3 647.5 331.2 648.1 332.6C648.9 334.7 650 335.7 652.2 336.3C653.5 336.6 655.2 336.8 657.4 337C660 337.2 662.2 335.3 664.2 332.8C666.7 329.6 668.6 325.3 670.1 323C672.8 318.9 666.2 320.3 666.2 316.7C666.2 313.2 667.4 312.6 667.4 305.7C667.4 298.8 669.6 294.2 669.9 290.2C670.2 286.3 667.9 286.7 667.9 280.9C667.9 275.1 671.6 276.6 674.2 274C676.8 271.4 673.9 267.6 673.9 263.4C673.9 259.2 678.4 255.5 678.5 250.7C678.6 245.8 683 237.7 688.6 235.5C694.2 233.3 696.1 224.6 698.3 220.3C700.8 216.1 697.9 218.2 694.2 216.9Z" fill="white"/>
<path d="M694.2 216.9C690.5 215.6 676.2 211.9 671.3 211.1C666.3 210.3 662.7 204.3 658.7 203C654.7 201.7 651.8 208.4 646.9 206.7C642 205 638.6 209.6 637.6 203.5C636.6 197.5 629.7 201.3 627.2 204.3C624.7 207.3 623.8 200.2 620.6 195.8C617.4 191.3 617.6 186.1 614.3 183.1C611 180.1 605.9 183.9 603.3 179.8C600.7 175.7 597.3 178.2 593.2 181.1C589.1 184 587.2 183.2 583.6 180.3C580.1 177.4 566.3 176.2 561.8 179.1C557.3 182 557.1 173.2 555.4 169.1C553.7 165 544.9 166.2 541.6 161.2C538.3 156.2 534.9 155.4 533.2 157C531.5 158.6 529.4 160 529.4 155.6C529.4 151.1 533.1 147.9 529.9 146.2C526.7 144.5 528.1 144.9 531.2 136.9C534.4 128.9 529.9 130.5 526.9 131.4C523.9 132.3 521.9 137.8 521.9 144.1C521.9 150.4 516.5 144.5 511.8 148.4C508.4 151.2 502.7 148 499.1 145.8C497.7 147.5 497.3 148.6 497.4 154.5C497.6 164.2 494.4 170.2 492.3 173.9C490.2 177.6 493.7 179 492.3 183.4C490.9 187.8 490.7 190.1 484.7 190.1C478.7 190.1 480.1 194.7 475 194.5C469.9 194.3 469.9 204.7 471.1 205.8C472.3 207 469.5 206.7 469 211.8C468.6 216.2 468 220.8 460.5 229.7C461.9 233.5 460.3 239.5 463.8 243.4C469 249.1 456.6 250.2 456.8 259.7C456.9 263.4 457 265.3 456.7 266.3C459.2 269.2 463.1 269.5 466.2 270.5C471.5 272.1 464.1 284.1 474.8 284.8C485.4 285.5 478 301.2 493.8 298.7C509.5 296.2 514.6 286.2 525 294.3C535.4 302.4 526.2 315.8 537.9 319C549.7 322.2 559.2 320.8 563.1 319C567 317.2 574.4 320.6 575.1 310.7C575.8 300.8 586 291.7 593.4 292.7C600.8 293.6 592.5 301.9 603.1 298.2C613.7 294.5 611.2 307.7 616.5 301.2C621.8 294.7 625.7 301.4 633.1 305.8C640.5 310.2 637.3 321.8 641.2 322.4C643.1 322.7 644.5 326.2 645.4 329.8C646.5 330.3 647.5 331.2 648.1 332.6C648.9 334.7 650 335.7 652.2 336.3C653.5 336.6 655.2 336.8 657.4 337C660 337.2 662.2 335.3 664.2 332.8C666.7 329.6 668.6 325.3 670.1 323C672.8 318.9 666.2 320.3 666.2 316.7C666.2 313.2 667.4 312.6 667.4 305.7C667.4 298.8 669.6 294.2 669.9 290.2C670.2 286.3 667.9 286.7 667.9 280.9C667.9 275.1 671.6 276.6 674.2 274C676.8 271.4 673.9 267.6 673.9 263.4C673.9 259.2 678.4 255.5 678.5 250.7C678.6 245.8 683 237.7 688.6 235.5C694.2 233.3 696.1 224.6 698.3 220.3C700.8 216.1 697.9 218.2 694.2 216.9Z" stroke="#005645" strokeWidth="2.1432"/>
<path d="M640.7 329.9C642.3 329.4 644.2 329.4 645.6 330C644.6 326.4 643.2 322.9 641.4 322.6C637.5 321.9 640.7 310.3 633.3 306C625.9 301.6 622 294.9 616.7 301.4C611.4 307.9 613.9 294.7 603.3 298.4C592.7 302.1 601 293.8 593.6 292.9C586.2 292 576 301 575.3 310.9C574.6 320.8 567.2 317.4 563.3 319.2C559.4 321 549.9 322.4 538.1 319.2C526.3 316 535.6 302.6 525.2 294.5C514.8 286.4 509.7 296.3 494 298.9C478.3 301.4 485.7 285.7 475 285C464.4 284.3 471.8 272.3 466.4 270.7C463.3 269.8 459.4 269.4 456.9 266.5C456.4 268.2 454.9 267.5 450.8 267.8C444.1 268.3 439 263.8 439 271C439 277.8 435.5 278.9 432 282.7C434.7 285.3 437.3 287.5 439.3 289.4C447.8 297.4 440.3 300.9 439.3 307.4C438.3 313.9 438.4 312.7 432.1 313C425.8 313.3 437.2 318.9 436.9 325.8C436.6 332.8 430.9 331.4 432.7 337.3C434.5 343.2 431.2 359.2 438.4 369.7C441.9 374.8 442.1 382 441.3 388.1C445.7 390.7 452.4 386.1 454.7 390.4C457.3 395.2 460.8 384.3 465 389.4C469.2 394.6 478.3 387.8 478.9 396.2C479.5 404.6 498 408.2 492.8 414.9C487.6 421.7 488.2 428.5 493.7 428.5C499.2 428.5 509.9 429.5 509.9 422.7C509.9 415.9 521.5 417.9 522.5 421.7C523.5 425.6 530.3 428.2 533.8 415.6C537.4 403 539.9 405.6 546.1 405.9C552.2 406.2 557.7 401.4 559.4 411.4C561 421.4 562 426.3 565.5 422.4C569.1 418.5 572.6 417.2 579.1 420.8C582.5 422.7 589.4 417.2 595.2 411.5C594.9 411.2 594.7 410.9 594.5 410.6C593.2 408.5 598.4 401 598.4 396.8C598.4 392.6 608.1 387.5 612.4 384.6C616.7 381.7 612.8 380.5 612.8 375.4C612.8 370.3 614.9 371.2 620.7 368.8C626.5 366.4 625.8 362.8 630.8 358.2C635.8 353.6 637.4 350.5 640.9 346C644.4 341.5 641.3 340.8 636.8 341.3C632.5 341.8 637.8 330.7 640.7 329.9Z" fill="white"/>
<path d="M640.7 329.9C642.3 329.4 644.2 329.4 645.6 330C644.6 326.4 643.2 322.9 641.4 322.6C637.5 321.9 640.7 310.3 633.3 306C625.9 301.6 622 294.9 616.7 301.4C611.4 307.9 613.9 294.7 603.3 298.4C592.7 302.1 601 293.8 593.6 292.9C586.2 292 576 301 575.3 310.9C574.6 320.8 567.2 317.4 563.3 319.2C559.4 321 549.9 322.4 538.1 319.2C526.3 316 535.6 302.6 525.2 294.5C514.8 286.4 509.7 296.3 494 298.9C478.3 301.4 485.7 285.7 475 285C464.4 284.3 471.8 272.3 466.4 270.7C463.3 269.8 459.4 269.4 456.9 266.5C456.4 268.2 454.9 267.5 450.8 267.8C444.1 268.3 439 263.8 439 271C439 277.8 435.5 278.9 432 282.7C434.7 285.3 437.3 287.5 439.3 289.4C447.8 297.4 440.3 300.9 439.3 307.4C438.3 313.9 438.4 312.7 432.1 313C425.8 313.3 437.2 318.9 436.9 325.8C436.6 332.8 430.9 331.4 432.7 337.3C434.5 343.2 431.2 359.2 438.4 369.7C441.9 374.8 442.1 382 441.3 388.1C445.7 390.7 452.4 386.1 454.7 390.4C457.3 395.2 460.8 384.3 465 389.4C469.2 394.6 478.3 387.8 478.9 396.2C479.5 404.6 498 408.2 492.8 414.9C487.6 421.7 488.2 428.5 493.7 428.5C499.2 428.5 509.9 429.5 509.9 422.7C509.9 415.9 521.5 417.9 522.5 421.7C523.5 425.6 530.3 428.2 533.8 415.6C537.4 403 539.9 405.6 546.1 405.9C552.2 406.2 557.7 401.4 559.4 411.4C561 421.4 562 426.3 565.5 422.4C569.1 418.5 572.6 417.2 579.1 420.8C582.5 422.7 589.4 417.2 595.2 411.5C594.9 411.2 594.7 410.9 594.5 410.6C593.2 408.5 598.4 401 598.4 396.8C598.4 392.6 608.1 387.5 612.4 384.6C616.7 381.7 612.8 380.5 612.8 375.4C612.8 370.3 614.9 371.2 620.7 368.8C626.5 366.4 625.8 362.8 630.8 358.2C635.8 353.6 637.4 350.5 640.9 346C644.4 341.5 641.3 340.8 636.8 341.3C632.5 341.8 637.8 330.7 640.7 329.9Z" stroke="#005645" strokeWidth="2.1432"/>
<path d="M438.5 369.6C431.3 359.1 434.6 343.2 432.8 337.2C431 331.3 436.7 332.6 437 325.7C437.3 318.7 425.9 313.1 432.2 312.9C438.5 312.6 438.4 313.8 439.4 307.3C440.4 300.8 447.9 297.3 439.4 289.3C437.4 287.4 434.8 285.1 432.1 282.6C431.8 282.9 431.6 283.1 431.4 283.4C427.7 287.9 417.4 286.6 410.2 287.1C403 287.6 415.2 273.3 401.5 271.6C387.7 269.9 390.2 272.4 386.2 272.8C382.2 273.3 383.5 262 380.2 262C377 262 378 252.3 374.7 251C371.5 249.7 367 244.5 367.2 236.8C367.4 231.6 366.3 229 362.8 222.8C363 223.6 363.2 224.1 363.2 224.1C363.2 224.1 357.9 228.8 356.4 238C354.9 247.2 341.1 237.4 333 239.6C324.9 241.9 336.2 254.3 334.8 261.9C333.3 269.5 330.6 268.4 330.6 277.1C330.6 278.1 330.5 278.8 330.4 279.4C333.6 284.1 334.1 285.9 331.7 289.3C328.3 294 331.6 295.1 333.2 302.1C334.8 309.2 327.2 314.7 322.8 319.9C318.4 325.1 312.6 330.6 307.1 328.5C301.6 326.4 295.6 321.2 296.6 330.1C297.2 335.2 293.9 347.8 291 357.6C292.1 358.2 293.3 358.9 294.7 359.2C298.6 360.2 303.2 365.7 303.2 371.5C303.2 377.3 309.2 374.9 312.4 374.4C315.5 373.9 318.4 367.9 321.3 372.9C324.2 378 329.3 389.8 331.4 391.8C333.6 393.7 329 403.9 336.5 403.9C344 403.9 344.7 408.3 345.4 413.3C346.1 418.4 361.1 408.9 367.2 412.8C373.2 416.7 375.6 412.4 388.2 411.3C393.6 410.9 397.7 411.1 400.6 411.4C400.6 411 400.6 410.6 400.8 410.2C402.2 406.5 411.4 401.4 416.2 401.4C421 401.4 414.6 391.1 422 391.1C429.4 391.1 435.9 381.1 440.1 386.3C440.6 386.9 441.1 387.3 441.6 387.6C442.2 381.9 442 374.7 438.5 369.6Z" fill="white"/>
<path d="M438.5 369.6C431.3 359.1 434.6 343.2 432.8 337.2C431 331.3 436.7 332.6 437 325.7C437.3 318.7 425.9 313.1 432.2 312.9C438.5 312.6 438.4 313.8 439.4 307.3C440.4 300.8 447.9 297.3 439.4 289.3C437.4 287.4 434.8 285.1 432.1 282.6C431.8 282.9 431.6 283.1 431.4 283.4C427.7 287.9 417.4 286.6 410.2 287.1C403 287.6 415.2 273.3 401.5 271.6C387.7 269.9 390.2 272.4 386.2 272.8C382.2 273.3 383.5 262 380.2 262C377 262 378 252.3 374.7 251C371.5 249.7 367 244.5 367.2 236.8C367.4 231.6 366.3 229 362.8 222.8C363 223.6 363.2 224.1 363.2 224.1C363.2 224.1 357.9 228.8 356.4 238C354.9 247.2 341.1 237.4 333 239.6C324.9 241.9 336.2 254.3 334.8 261.9C333.3 269.5 330.6 268.4 330.6 277.1C330.6 278.1 330.5 278.8 330.4 279.4C333.6 284.1 334.1 285.9 331.7 289.3C328.3 294 331.6 295.1 333.2 302.1C334.8 309.2 327.2 314.7 322.8 319.9C318.4 325.1 312.6 330.6 307.1 328.5C301.6 326.4 295.6 321.2 296.6 330.1C297.2 335.2 293.9 347.8 291 357.6C292.1 358.2 293.3 358.9 294.7 359.2C298.6 360.2 303.2 365.7 303.2 371.5C303.2 377.3 309.2 374.9 312.4 374.4C315.5 373.9 318.4 367.9 321.3 372.9C324.2 378 329.3 389.8 331.4 391.8C333.6 393.7 329 403.9 336.5 403.9C344 403.9 344.7 408.3 345.4 413.3C346.1 418.4 361.1 408.9 367.2 412.8C373.2 416.7 375.6 412.4 388.2 411.3C393.6 410.9 397.7 411.1 400.6 411.4C400.6 411 400.6 410.6 400.8 410.2C402.2 406.5 411.4 401.4 416.2 401.4C421 401.4 414.6 391.1 422 391.1C429.4 391.1 435.9 381.1 440.1 386.3C440.6 386.9 441.1 387.3 441.6 387.6C442.2 381.9 442 374.7 438.5 369.6Z" stroke="#005645" strokeWidth="2.1432"/>
<path d="M675.6 469.7H760C766.3 469.7 771.4 474.8 771.4 481.1V493.2C771.4 499.5 766.3 504.6 760 504.6H675.6C669.3 504.6 664.2 499.5 664.2 493.2V481.1C664.2 474.8 669.3 469.7 675.6 469.7Z" fill="#005645" stroke="#005645" strokeWidth="1.0716"/>
<path d="M609 565.9H709.6V505.9" stroke="#005645" strokeWidth="1.0716"/>
<path d="M562.9 667.5V607.5" stroke="#005645" strokeWidth="1.0716"/>
<path d="M695.141 482.331V494.869H693.494V484.864L689.496 494.869H688.03L684.014 484.9V494.869H682.368V482.331H684.34L688.79 492.86L693.169 482.331H695.141ZM701.845 484.809C702.81 484.809 703.624 485.051 704.287 485.533C704.963 486.016 705.433 486.661 705.698 487.469V484.936H707.345V494.869H705.698V492.336C705.433 493.144 704.963 493.789 704.287 494.272C703.624 494.754 702.81 494.995 701.845 494.995C700.964 494.995 700.18 494.79 699.493 494.38C698.805 493.97 698.263 493.385 697.865 492.625C697.479 491.853 697.286 490.949 697.286 489.911C697.286 488.874 697.479 487.97 697.865 487.198C698.263 486.426 698.805 485.835 699.493 485.425C700.18 485.014 700.964 484.809 701.845 484.809ZM702.315 486.275C701.302 486.275 700.488 486.601 699.873 487.252C699.27 487.891 698.968 488.778 698.968 489.911C698.968 491.045 699.27 491.938 699.873 492.589C700.488 493.228 701.302 493.548 702.315 493.548C702.967 493.548 703.546 493.397 704.052 493.096C704.571 492.794 704.975 492.372 705.264 491.829C705.554 491.274 705.698 490.635 705.698 489.911C705.698 489.188 705.554 488.548 705.264 487.994C704.975 487.439 704.571 487.017 704.052 486.727C703.546 486.426 702.967 486.275 702.315 486.275ZM711.611 486.944C711.937 486.257 712.414 485.726 713.041 485.352C713.668 484.966 714.416 484.773 715.284 484.773V486.564H714.778C713.849 486.564 713.089 486.806 712.498 487.288C711.907 487.758 711.611 488.542 711.611 489.64V494.869H709.965V484.936H711.611V486.944ZM720.021 484.809C721.142 484.809 722.041 485.105 722.716 485.696C723.404 486.275 723.82 487.059 723.965 488.048H722.391C722.318 487.457 722.071 486.974 721.649 486.601C721.239 486.215 720.684 486.022 719.984 486.022C719.393 486.022 718.929 486.166 718.591 486.456C718.266 486.733 718.103 487.113 718.103 487.596C718.103 487.957 718.211 488.253 718.428 488.482C718.658 488.699 718.935 488.868 719.261 488.989C719.598 489.097 720.057 489.218 720.636 489.351C721.371 489.519 721.962 489.694 722.409 489.875C722.867 490.044 723.253 490.322 723.567 490.707C723.892 491.093 724.055 491.612 724.055 492.263C724.055 493.072 723.747 493.729 723.132 494.235C722.529 494.742 721.721 494.995 720.708 494.995C719.526 494.995 718.561 494.712 717.813 494.145C717.065 493.578 716.625 492.788 716.493 491.775H718.085C718.145 492.378 718.404 492.866 718.863 493.24C719.333 493.614 719.948 493.801 720.708 493.801C721.275 493.801 721.715 493.656 722.029 493.367C722.354 493.078 722.517 492.698 722.517 492.227C722.517 491.841 722.403 491.534 722.173 491.305C721.944 491.075 721.661 490.9 721.323 490.78C720.985 490.659 720.521 490.533 719.93 490.4C719.194 490.231 718.603 490.062 718.157 489.893C717.723 489.724 717.349 489.459 717.035 489.097C716.734 488.723 716.583 488.223 716.583 487.596C716.583 486.763 716.891 486.094 717.506 485.587C718.121 485.069 718.959 484.809 720.021 484.809ZM735.392 489.351C735.392 489.7 735.367 490.002 735.319 490.255H727.377C727.413 491.389 727.733 492.239 728.336 492.806C728.951 493.373 729.699 493.656 730.579 493.656C731.375 493.656 732.039 493.457 732.569 493.059C733.112 492.649 733.444 492.107 733.564 491.431H735.319C735.199 492.119 734.927 492.734 734.505 493.277C734.095 493.819 733.558 494.241 732.895 494.543C732.232 494.845 731.484 494.995 730.651 494.995C729.699 494.995 728.854 494.79 728.119 494.38C727.383 493.97 726.804 493.385 726.382 492.625C725.972 491.853 725.767 490.949 725.767 489.911C725.767 488.874 725.972 487.97 726.382 487.198C726.804 486.426 727.383 485.835 728.119 485.425C728.854 485.014 729.699 484.809 730.651 484.809C731.616 484.809 732.455 485.014 733.166 485.425C733.89 485.835 734.439 486.383 734.813 487.071C735.199 487.758 735.392 488.518 735.392 489.351ZM733.727 489.459C733.763 488.723 733.643 488.108 733.365 487.614C733.088 487.119 732.708 486.751 732.225 486.51C731.743 486.269 731.218 486.148 730.651 486.148C729.747 486.148 728.987 486.432 728.372 486.999C727.757 487.553 727.425 488.374 727.377 489.459H733.727ZM737.255 482.023C737.255 481.722 737.358 481.48 737.563 481.3C737.768 481.107 738.039 481.01 738.377 481.01C738.715 481.01 738.986 481.107 739.191 481.3C739.396 481.48 739.499 481.722 739.499 482.023C739.499 482.325 739.396 482.572 739.191 482.765C738.986 482.946 738.715 483.036 738.377 483.036C738.039 483.036 737.768 482.946 737.563 482.765C737.358 482.572 737.255 482.325 737.255 482.023ZM739.191 484.936V494.869H737.545V484.936H739.191ZM743.485 481.48V494.869H741.838V481.48H743.485ZM747.778 481.48V494.869H746.132V481.48H747.778ZM759.561 489.351C759.561 489.7 759.537 490.002 759.489 490.255H751.547C751.583 491.389 751.903 492.239 752.506 492.806C753.121 493.373 753.869 493.656 754.749 493.656C755.545 493.656 756.208 493.457 756.739 493.059C757.282 492.649 757.614 492.107 757.734 491.431H759.489C759.369 492.119 759.097 492.734 758.675 493.277C758.265 493.819 757.728 494.241 757.065 494.543C756.401 494.845 755.654 494.995 754.821 494.995C753.869 494.995 753.024 494.79 752.288 494.38C751.553 493.97 750.974 493.385 750.552 492.625C750.142 491.853 749.936 490.949 749.936 489.911C749.936 488.874 750.142 487.97 750.552 487.198C750.974 486.426 751.553 485.835 752.288 485.425C753.024 485.014 753.869 484.809 754.821 484.809C755.786 484.809 756.625 485.014 757.336 485.425C758.06 485.835 758.609 486.383 758.983 487.071C759.369 487.758 759.561 488.518 759.561 489.351ZM757.897 489.459C757.933 488.723 757.813 488.108 757.535 487.614C757.258 487.119 756.878 486.751 756.395 486.51C755.913 486.269 755.388 486.148 754.821 486.148C753.917 486.148 753.157 486.432 752.542 486.999C751.927 487.553 751.595 488.374 751.547 489.459H757.897Z" fill="white"/>
<path opacity="0.4" d="M618.2 564.1C617 559 612.6 556.7 608.7 556.7C604.8 556.7 600.4 559 599.2 564.1C597.9 569.8 601.4 574.6 604.5 577.6C605.7 578.7 607.2 579.3 608.7 579.3C610.2 579.3 611.7 578.7 612.9 577.6C616 574.6 619.5 569.8 618.2 564.1Z" fill="#005645"/>
<path d="M608.7 569.6C610.6 569.6 612.2 568 612.2 566.1C612.2 564.2 610.6 562.6 608.7 562.6C606.8 562.6 605.2 564.2 605.2 566.1C605.2 568.1 606.8 569.6 608.7 569.6Z" fill="#005645"/>
<path opacity="0.4" d="M572 605.6C570.8 600.5 566.4 598.2 562.5 598.2C558.6 598.2 554.2 600.5 553 605.6C551.7 611.3 555.2 616.1 558.3 619.1C559.5 620.2 561 620.8 562.5 620.8C564 620.8 565.5 620.2 566.7 619.1C569.8 616.1 573.3 611.3 572 605.6Z" fill="#005645"/>
<path d="M562.5 611.1C564.4 611.1 566 609.5 566 607.6C566 605.7 564.4 604.1 562.5 604.1C560.6 604.1 559 605.7 559 607.6C559.1 609.6 560.6 611.1 562.5 611.1Z" fill="#005645"/>
<path d="M527.9 667.9H612.3C618.6 667.9 623.7 673 623.7 679.3V691.4C623.7 697.7 618.6 702.8 612.3 702.8H527.9C521.6 702.8 516.5 697.7 516.5 691.4V679.3C516.5 673 521.6 667.9 527.9 667.9Z" fill="#005645" stroke="#005645" strokeWidth="1.0716"/>
<path d="M531.389 680.702C532.872 680.702 534.114 681.07 535.115 681.806C536.129 682.541 536.81 683.542 537.16 684.809H535.423C535.122 684.037 534.615 683.416 533.903 682.945C533.204 682.475 532.372 682.24 531.407 682.24C530.538 682.24 529.76 682.445 529.073 682.855C528.385 683.253 527.842 683.826 527.444 684.574C527.058 685.321 526.865 686.202 526.865 687.215C526.865 688.252 527.065 689.151 527.463 689.911C527.861 690.659 528.409 691.238 529.109 691.648C529.821 692.046 530.635 692.245 531.551 692.245C532.335 692.245 533.053 692.076 533.704 691.738C534.356 691.4 534.886 690.912 535.296 690.273C535.719 689.621 535.972 688.861 536.056 687.993H531.045V686.763H537.449V688.283C537.341 689.296 537.027 690.212 536.509 691.033C535.99 691.853 535.29 692.504 534.41 692.986C533.529 693.469 532.528 693.71 531.407 693.71C530.176 693.71 529.091 693.439 528.15 692.896C527.209 692.341 526.473 691.575 525.943 690.598C525.424 689.609 525.165 688.482 525.165 687.215C525.165 685.949 525.424 684.827 525.943 683.85C526.473 682.861 527.209 682.089 528.15 681.534C529.091 680.979 530.17 680.702 531.389 680.702ZM543.751 683.524C544.716 683.524 545.53 683.766 546.194 684.248C546.869 684.73 547.339 685.376 547.605 686.184V683.651H549.251V693.583H547.605V691.051C547.339 691.859 546.869 692.504 546.194 692.986C545.53 693.469 544.716 693.71 543.751 693.71C542.871 693.71 542.087 693.505 541.399 693.095C540.712 692.685 540.169 692.1 539.771 691.34C539.385 690.568 539.192 689.664 539.192 688.626C539.192 687.589 539.385 686.684 539.771 685.912C540.169 685.141 540.712 684.55 541.399 684.139C542.087 683.729 542.871 683.524 543.751 683.524ZM544.222 684.99C543.208 684.99 542.394 685.315 541.779 685.967C541.176 686.606 540.875 687.492 540.875 688.626C540.875 689.76 541.176 690.653 541.779 691.304C542.394 691.943 543.208 692.263 544.222 692.263C544.873 692.263 545.452 692.112 545.958 691.81C546.477 691.509 546.881 691.087 547.171 690.544C547.46 689.989 547.605 689.35 547.605 688.626C547.605 687.903 547.46 687.263 547.171 686.708C546.881 686.154 546.477 685.732 545.958 685.442C545.452 685.141 544.873 684.99 544.222 684.99ZM553.518 685.659C553.843 684.972 554.32 684.441 554.947 684.067C555.574 683.681 556.322 683.488 557.191 683.488V685.279H556.684C555.755 685.279 554.995 685.52 554.404 686.003C553.813 686.473 553.518 687.257 553.518 688.355V693.583H551.871V683.651H553.518V685.659ZM562.886 683.524C563.851 683.524 564.665 683.766 565.328 684.248C566.004 684.73 566.474 685.376 566.739 686.184V680.195H568.386V693.583H566.739V691.051C566.474 691.859 566.004 692.504 565.328 692.986C564.665 693.469 563.851 693.71 562.886 693.71C562.005 693.71 561.221 693.505 560.534 693.095C559.846 692.685 559.303 692.1 558.905 691.34C558.52 690.568 558.327 689.664 558.327 688.626C558.327 687.589 558.52 686.684 558.905 685.912C559.303 685.141 559.846 684.55 560.534 684.139C561.221 683.729 562.005 683.524 562.886 683.524ZM563.356 684.99C562.343 684.99 561.529 685.315 560.914 685.967C560.311 686.606 560.009 687.492 560.009 688.626C560.009 689.76 560.311 690.653 560.914 691.304C561.529 691.943 562.343 692.263 563.356 692.263C564.007 692.263 564.586 692.112 565.093 691.81C565.612 691.509 566.016 691.087 566.305 690.544C566.595 689.989 566.739 689.35 566.739 688.626C566.739 687.903 566.595 687.263 566.305 686.708C566.016 686.154 565.612 685.732 565.093 685.442C564.586 685.141 564.007 684.99 563.356 684.99ZM575.077 683.524C576.042 683.524 576.856 683.766 577.519 684.248C578.195 684.73 578.665 685.376 578.93 686.184V683.651H580.577V693.583H578.93V691.051C578.665 691.859 578.195 692.504 577.519 692.986C576.856 693.469 576.042 693.71 575.077 693.71C574.196 693.71 573.412 693.505 572.725 693.095C572.037 692.685 571.494 692.1 571.096 691.34C570.71 690.568 570.517 689.664 570.517 688.626C570.517 687.589 570.71 686.684 571.096 685.912C571.494 685.141 572.037 684.55 572.725 684.139C573.412 683.729 574.196 683.524 575.077 683.524ZM575.547 684.99C574.534 684.99 573.72 685.315 573.105 685.967C572.502 686.606 572.2 687.492 572.2 688.626C572.2 689.76 572.502 690.653 573.105 691.304C573.72 691.943 574.534 692.263 575.547 692.263C576.198 692.263 576.777 692.112 577.284 691.81C577.803 691.509 578.207 691.087 578.496 690.544C578.786 689.989 578.93 689.35 578.93 688.626C578.93 687.903 578.786 687.263 578.496 686.708C578.207 686.154 577.803 685.732 577.284 685.442C576.777 685.141 576.198 684.99 575.547 684.99ZM588.426 683.488C589.583 683.488 590.518 683.862 591.23 684.61C591.941 685.346 592.297 686.413 592.297 687.812V693.583H590.651V687.957C590.651 686.968 590.398 686.208 589.891 685.677C589.384 685.147 588.697 684.881 587.829 684.881C586.924 684.881 586.2 685.177 585.657 685.768C585.115 686.347 584.843 687.197 584.843 688.319V693.583H583.197V683.651H584.843V686.003C585.097 685.195 585.543 684.574 586.182 684.139C586.833 683.705 587.581 683.488 588.426 683.488ZM600.051 683.488C601.209 683.488 602.144 683.862 602.855 684.61C603.567 685.346 603.923 686.413 603.923 687.812V693.583H602.276V687.957C602.276 686.968 602.023 686.208 601.517 685.677C601.01 685.147 600.323 684.881 599.454 684.881C598.549 684.881 597.826 685.177 597.283 685.768C596.74 686.347 596.469 687.197 596.469 688.319V693.583H594.823V683.651H596.469V686.003C596.722 685.195 597.168 684.574 597.808 684.139C598.459 683.705 599.207 683.488 600.051 683.488ZM615.585 688.065C615.585 688.415 615.561 688.717 615.512 688.97H607.57C607.606 690.104 607.926 690.954 608.529 691.521C609.144 692.088 609.892 692.371 610.772 692.371C611.568 692.371 612.232 692.172 612.762 691.774C613.305 691.364 613.637 690.821 613.757 690.146H615.512C615.392 690.833 615.12 691.449 614.698 691.991C614.288 692.534 613.751 692.956 613.088 693.258C612.425 693.559 611.677 693.71 610.844 693.71C609.892 693.71 609.047 693.505 608.312 693.095C607.576 692.685 606.997 692.1 606.575 691.34C606.165 690.568 605.96 689.664 605.96 688.626C605.96 687.589 606.165 686.684 606.575 685.912C606.997 685.141 607.576 684.55 608.312 684.139C609.047 683.729 609.892 683.524 610.844 683.524C611.809 683.524 612.648 683.729 613.359 684.139C614.083 684.55 614.632 685.098 615.006 685.786C615.392 686.473 615.585 687.233 615.585 688.065ZM613.92 688.174C613.956 687.438 613.836 686.823 613.558 686.329C613.281 685.834 612.901 685.466 612.419 685.225C611.936 684.984 611.411 684.863 610.844 684.863C609.94 684.863 609.18 685.147 608.565 685.713C607.95 686.268 607.618 687.088 607.57 688.174H613.92Z" fill="white"/>
</svg>
